<?xml version="1.0" encoding="UTF-8" standalone="no"?>
<svg
   xmlns:dc="http://purl.org/dc/elements/1.1/"
   xmlns:cc="http://creativecommons.org/ns#"
   xmlns:rdf="http://www.w3.org/1999/02/22-rdf-syntax-ns#"
   xmlns:svg="http://www.w3.org/2000/svg"
   xmlns="http://www.w3.org/2000/svg"
   xmlns:sodipodi="http://sodipodi.sourceforge.net/DTD/sodipodi-0.dtd"
   xmlns:inkscape="http://www.inkscape.org/namespaces/inkscape"
   viewBox="0 0 576 512"
   version="1.1"
   id="svg4"
   sodipodi:docname="cat.svg"
   inkscape:version="1.0.2 (e86c870879, 2021-01-15)">
  <metadata
     id="metadata10">
    <rdf:RDF>
      <cc:Work
         rdf:about="">
        <dc:format>image/svg+xml</dc:format>
        <dc:type
           rdf:resource="http://purl.org/dc/dcmitype/StillImage" />
        <dc:title></dc:title>
      </cc:Work>
    </rdf:RDF>
  </metadata>
  <defs
     id="defs8" />
  <sodipodi:namedview
     pagecolor="#ffffff"
     bordercolor="#666666"
     borderopacity="1"
     objecttolerance="10"
     gridtolerance="10"
     guidetolerance="10"
     inkscape:pageopacity="0"
     inkscape:pageshadow="2"
     inkscape:window-width="1920"
     inkscape:window-height="1001"
     id="namedview6"
     showgrid="false"
     inkscape:zoom="1.6210938"
     inkscape:cx="288"
     inkscape:cy="256"
     inkscape:window-x="-9"
     inkscape:window-y="41"
     inkscape:window-maximized="1"
     inkscape:current-layer="svg4" />
  <!--! Font Awesome Pro 6.1.1 by @fontawesome - https://fontawesome.com License - https://fontawesome.com/license (Commercial License) Copyright 2022 Fonticons, Inc. -->
  <path
     d="M322.6 192C302.4 192 215.8 194 160 278V192c0-53-43-96-96-96C46.38 96 32 110.4 32 128s14.38 32 32 32s32 14.38 32 32v256c0 35.25 28.75 64 64 64h176c8.875 0 16-7.125 16-15.1V480c0-17.62-14.38-32-32-32h-32l128-96v144c0 8.875 7.125 16 16 16h32c8.875 0 16-7.125 16-16V289.9c-10.25 2.625-20.88 4.5-32 4.5C386.2 294.4 334.5 250.4 322.6 192zM480 96h-64l-64-64v134.4c0 53 43 95.1 96 95.1s96-42.1 96-95.1V32L480 96zM408 176c-8.875 0-16-7.125-16-16s7.125-16 16-16s16 7.125 16 16S416.9 176 408 176zM488 176c-8.875 0-16-7.125-16-16s7.125-16 16-16s16 7.125 16 16S496.9 176 488 176z"
     id="path2"
     style="fill:#ffffff;fill-opacity:1" />
</svg>
