<?xml version="1.0" encoding="UTF-8" standalone="no"?>
<svg
   xmlns:dc="http://purl.org/dc/elements/1.1/"
   xmlns:cc="http://creativecommons.org/ns#"
   xmlns:rdf="http://www.w3.org/1999/02/22-rdf-syntax-ns#"
   xmlns:svg="http://www.w3.org/2000/svg"
   xmlns="http://www.w3.org/2000/svg"
   xmlns:sodipodi="http://sodipodi.sourceforge.net/DTD/sodipodi-0.dtd"
   xmlns:inkscape="http://www.inkscape.org/namespaces/inkscape"
   viewBox="0 0 576 512"
   version="1.1"
   id="svg4"
   sodipodi:docname="dog.svg"
   inkscape:version="1.0.2 (e86c870879, 2021-01-15)">
  <metadata
     id="metadata10">
    <rdf:RDF>
      <cc:Work
         rdf:about="">
        <dc:format>image/svg+xml</dc:format>
        <dc:type
           rdf:resource="http://purl.org/dc/dcmitype/StillImage" />
        <dc:title></dc:title>
      </cc:Work>
    </rdf:RDF>
  </metadata>
  <defs
     id="defs8" />
  <sodipodi:namedview
     pagecolor="#ffffff"
     bordercolor="#666666"
     borderopacity="1"
     objecttolerance="10"
     gridtolerance="10"
     guidetolerance="10"
     inkscape:pageopacity="0"
     inkscape:pageshadow="2"
     inkscape:window-width="1920"
     inkscape:window-height="1001"
     id="namedview6"
     showgrid="false"
     inkscape:zoom="1.6210938"
     inkscape:cx="288"
     inkscape:cy="256"
     inkscape:window-x="-9"
     inkscape:window-y="41"
     inkscape:window-maximized="1"
     inkscape:current-layer="svg4" />
  <!--! Font Awesome Pro 6.1.1 by @fontawesome - https://fontawesome.com License - https://fontawesome.com/license (Commercial License) Copyright 2022 Fonticons, Inc. -->
  <path
     d="M332.7 19.85C334.6 8.395 344.5 0 356.1 0C363.6 0 370.6 3.52 375.1 9.502L392 32H444.1C456.8 32 469.1 37.06 478.1 46.06L496 64H552C565.3 64 576 74.75 576 88V112C576 156.2 540.2 192 496 192H426.7L421.6 222.5L309.6 158.5L332.7 19.85zM448 64C439.2 64 432 71.16 432 80C432 88.84 439.2 96 448 96C456.8 96 464 88.84 464 80C464 71.16 456.8 64 448 64zM416 256.1V480C416 497.7 401.7 512 384 512H352C334.3 512 320 497.7 320 480V364.8C295.1 377.1 268.8 384 240 384C211.2 384 184 377.1 160 364.8V480C160 497.7 145.7 512 128 512H96C78.33 512 64 497.7 64 480V249.8C35.23 238.9 12.64 214.5 4.836 183.3L.9558 167.8C-3.331 150.6 7.094 133.2 24.24 128.1C41.38 124.7 58.76 135.1 63.05 152.2L66.93 167.8C70.49 182 83.29 191.1 97.97 191.1H303.8L416 256.1z"
     id="path2"
     style="fill:#ffffff" />
</svg>
