<svg width="82" height="61" viewBox="0 0 82 61" fill="none" xmlns="http://www.w3.org/2000/svg">
<path d="M81.9715 30.4404C81.9715 32.585 79.8361 34.2648 77.416 34.2648H72.8604L72.9601 53.3393C72.9601 53.6729 72.9316 53.9826 72.8889 54.3043V56.2344C72.8889 58.8674 70.3406 61 67.1945 61H64.9167C64.7601 61 64.6035 60.8928 64.4469 60.9881C64.2476 60.8928 64.0483 61 63.849 61H55.8056C52.6594 61 50.1111 58.8674 50.1111 56.2344V45.75C50.1111 43.6412 48.0754 41.9375 45.5556 41.9375H36.4444C33.9247 41.9375 31.8889 43.6412 31.8889 45.75V56.2344C31.8889 58.8674 29.3406 61 26.1944 61H18.2365C18.0229 61 17.8094 60.9881 17.5958 60.9762C17.425 60.9881 17.2542 61 17.0833 61H14.8056C11.6608 61 9.11111 58.8674 9.11111 56.2344V42.8906C9.11111 42.7834 9.11538 42.6643 9.12392 42.557V34.2648H4.56267C1.9959 34.2648 0 32.585 0 30.4404C0 29.3682 0.427653 28.415 1.42503 27.5811L37.925 0.955031C38.9215 0.119379 40.0604 0 41.0569 0C42.0535 0 43.1924 0.238758 44.0608 0.835652L80.4056 27.5811C81.5444 28.415 82.1281 29.3682 81.9715 30.4404Z" fill="black"/>
</svg>
