<svg width="800" height="331" viewBox="0 0 800 331" fill="none" xmlns="http://www.w3.org/2000/svg">
<path d="M91.185 124.896C90.3317 124.896 89.521 124.64 88.753 124.128C88.0703 123.616 87.601 122.933 87.345 122.08L76.849 91.616L44.977 98.656L35.633 122.208C35.377 122.976 34.9077 123.573 34.225 124C33.5423 124.512 32.7743 124.768 31.921 124.768C30.8117 124.768 29.873 124.384 29.105 123.616C28.4223 122.848 28.081 121.867 28.081 120.672C28.081 120.16 28.2517 119.435 28.593 118.496L35.633 100.448C34.865 100.704 34.097 100.832 33.329 100.832C32.305 100.747 31.4517 100.363 30.769 99.68C30.0863 98.912 29.745 97.9733 29.745 96.864C29.745 95.9253 30.0437 95.072 30.641 94.304C31.2383 93.536 31.9637 93.0667 32.817 92.896L39.217 91.488L59.697 39.136C60.0383 38.368 60.593 37.7707 61.361 37.344C62.129 36.832 62.897 36.576 63.665 36.576C64.5183 36.576 65.2863 36.832 65.969 37.344C66.6517 37.7707 67.1637 38.4107 67.505 39.264L94.513 117.856C95.025 119.392 95.281 120.416 95.281 120.928C95.281 121.952 94.897 122.891 94.129 123.744C93.361 124.512 92.3797 124.896 91.185 124.896ZM74.033 83.936L63.153 52.064L48.433 89.44L74.033 83.936ZM141.761 124.768C135.02 124.768 128.833 123.189 123.201 120.032C117.569 116.875 113.089 112.437 109.761 106.72C106.433 100.917 104.769 94.2613 104.769 86.752C104.769 78.3893 106.646 70.4107 110.401 62.816C114.241 55.136 119.19 48.992 125.249 44.384C131.393 39.776 137.708 37.472 144.193 37.472C147.862 37.472 151.02 37.9413 153.665 38.88C156.31 39.7333 158.828 40.928 161.217 42.464C161.473 41.952 161.9 41.5253 162.497 41.184C163.094 40.8427 163.777 40.672 164.545 40.672C165.654 40.672 166.593 41.056 167.361 41.824C168.129 42.592 168.513 43.5307 168.513 44.64V52.832C168.513 53.9413 168.086 54.9227 167.233 55.776C166.465 56.544 165.526 56.928 164.417 56.928C163.308 56.928 162.326 56.544 161.473 55.776C160.705 55.008 160.321 54.0693 160.321 52.96V51.936C158.444 50.144 156.268 48.6507 153.793 47.456C151.318 46.176 148.118 45.536 144.193 45.536C139.158 45.536 134.252 47.456 129.473 51.296C124.694 55.136 120.769 60.256 117.697 66.656C114.71 72.9707 113.217 79.6693 113.217 86.752C113.217 92.8107 114.54 98.1013 117.185 102.624C119.83 107.147 123.329 110.645 127.681 113.12C132.033 115.509 136.726 116.704 141.761 116.704C151.574 116.704 159.553 112.693 165.697 104.672C166.209 104.075 166.678 103.691 167.105 103.52C167.617 103.264 168.214 103.136 168.897 103.136C170.006 103.136 170.945 103.52 171.713 104.288C172.566 104.971 172.993 105.952 172.993 107.232C172.993 108.256 172.737 109.067 172.225 109.664C168.641 114.528 164.204 118.283 158.913 120.928C153.622 123.488 147.905 124.768 141.761 124.768ZM220.386 124.768C213.645 124.768 207.458 123.189 201.826 120.032C196.194 116.875 191.714 112.437 188.386 106.72C185.058 100.917 183.394 94.2613 183.394 86.752C183.394 78.3893 185.271 70.4107 189.026 62.816C192.866 55.136 197.815 48.992 203.874 44.384C210.018 39.776 216.333 37.472 222.818 37.472C226.487 37.472 229.645 37.9413 232.29 38.88C234.935 39.7333 237.453 40.928 239.842 42.464C240.098 41.952 240.525 41.5253 241.122 41.184C241.719 40.8427 242.402 40.672 243.17 40.672C244.279 40.672 245.218 41.056 245.986 41.824C246.754 42.592 247.138 43.5307 247.138 44.64V52.832C247.138 53.9413 246.711 54.9227 245.858 55.776C245.09 56.544 244.151 56.928 243.042 56.928C241.933 56.928 240.951 56.544 240.098 55.776C239.33 55.008 238.946 54.0693 238.946 52.96V51.936C237.069 50.144 234.893 48.6507 232.418 47.456C229.943 46.176 226.743 45.536 222.818 45.536C217.783 45.536 212.877 47.456 208.098 51.296C203.319 55.136 199.394 60.256 196.322 66.656C193.335 72.9707 191.842 79.6693 191.842 86.752C191.842 92.8107 193.165 98.1013 195.81 102.624C198.455 107.147 201.954 110.645 206.306 113.12C210.658 115.509 215.351 116.704 220.386 116.704C230.199 116.704 238.178 112.693 244.322 104.672C244.834 104.075 245.303 103.691 245.73 103.52C246.242 103.264 246.839 103.136 247.522 103.136C248.631 103.136 249.57 103.52 250.338 104.288C251.191 104.971 251.618 105.952 251.618 107.232C251.618 108.256 251.362 109.067 250.85 109.664C247.266 114.528 242.829 118.283 237.538 120.928C232.247 123.488 226.53 124.768 220.386 124.768ZM270.723 124C269.614 124 268.632 123.573 267.779 122.72C266.926 121.867 266.499 120.885 266.499 119.776V42.336C266.499 41.2267 266.883 40.288 267.651 39.52C268.504 38.6667 269.528 38.24 270.723 38.24H324.867C326.062 38.24 327.043 38.624 327.811 39.392C328.579 40.16 328.963 41.1413 328.963 42.336C328.963 43.4453 328.536 44.4267 327.683 45.28C326.915 46.048 325.976 46.432 324.867 46.432H274.691V75.232H318.723C319.918 75.232 320.856 75.616 321.539 76.384C322.307 77.0667 322.691 78.0053 322.691 79.2C322.691 80.3947 322.307 81.4187 321.539 82.272C320.771 83.04 319.832 83.424 318.723 83.424H274.691V115.808H324.611C325.806 115.808 326.787 116.192 327.555 116.96C328.323 117.728 328.707 118.667 328.707 119.776C328.707 120.971 328.28 121.995 327.427 122.848C326.659 123.616 325.72 124 324.611 124H270.723ZM367.944 124.768C360.349 124.768 353.864 123.147 348.488 119.904C343.197 116.576 339.485 112.267 337.352 106.976C336.84 106.123 336.584 105.269 336.584 104.416C336.584 103.221 337.011 102.24 337.864 101.472C338.717 100.619 339.741 100.192 340.936 100.192C343.069 100.192 344.477 101.301 345.16 103.52C346.611 107.531 349.427 110.816 353.608 113.376C357.875 115.851 362.653 117.088 367.944 117.088C372.125 117.088 375.837 116.363 379.08 114.912C382.408 113.461 384.968 111.499 386.76 109.024C388.637 106.549 389.576 103.776 389.576 100.704C389.576 96.7787 387.955 93.3653 384.712 90.464C381.469 87.5627 375.965 85.0453 368.2 82.912C350.365 78.048 341.448 70.112 341.448 59.104C341.448 54.9227 342.6 51.2107 344.904 47.968C347.293 44.7253 350.707 42.1653 355.144 40.288C359.667 38.4107 364.915 37.472 370.888 37.472C379.336 37.472 385.907 39.0933 390.6 42.336C395.293 45.4933 397.64 49.76 397.64 55.136C397.64 56.2453 397.256 57.2267 396.488 58.08C395.72 58.848 394.781 59.232 393.672 59.232C392.648 59.232 391.752 58.8907 390.984 58.208C390.301 57.5253 389.917 56.7147 389.832 55.776C389.405 52.5333 387.443 49.888 383.944 47.84C380.531 45.792 376.051 44.768 370.504 44.768C363.848 44.768 358.685 46.0053 355.016 48.48C351.432 50.9547 349.64 54.368 349.64 58.72C349.64 62.3893 351.304 65.504 354.632 68.064C358.045 70.624 363.251 72.8853 370.248 74.848C379.464 77.408 386.333 80.7787 390.856 84.96C395.464 89.056 397.768 94.0907 397.768 100.064C397.768 104.672 396.403 108.896 393.672 112.736C390.941 116.491 387.272 119.435 382.664 121.568C378.056 123.701 373.149 124.768 367.944 124.768ZM442.025 124.768C435.796 124.768 430.206 123.061 425.257 119.648C420.393 116.149 416.596 111.371 413.865 105.312C411.134 99.168 409.769 92.2987 409.769 84.704C409.769 76.1707 411.476 68.2773 414.889 61.024C418.302 53.7707 422.91 48.0533 428.713 43.872C434.516 39.6053 440.788 37.472 447.529 37.472C453.844 37.472 459.433 39.2213 464.297 42.72C469.161 46.1333 472.958 50.912 475.689 57.056C478.42 63.2 479.785 70.0693 479.785 77.664C479.785 86.1973 478.078 94.0907 474.665 101.344C471.252 108.512 466.644 114.229 460.841 118.496C455.038 122.677 448.766 124.768 442.025 124.768ZM442.537 116.832C447.657 116.832 452.393 115.083 456.745 111.584C461.182 108.085 464.724 103.349 467.369 97.376C470.014 91.4027 471.337 84.96 471.337 78.048C471.337 71.648 470.27 65.9733 468.137 61.024C466.004 56.0747 463.06 52.2347 459.305 49.504C455.636 46.7733 451.497 45.408 446.889 45.408C441.854 45.408 437.118 47.1573 432.681 50.656C428.244 54.0693 424.702 58.7627 422.057 64.736C419.497 70.7093 418.217 77.28 418.217 84.448C418.217 90.9333 419.284 96.6507 421.417 101.6C423.636 106.464 426.58 110.219 430.249 112.864C433.918 115.509 438.014 116.832 442.537 116.832ZM500.595 124.768C499.486 124.768 498.504 124.384 497.651 123.616C496.883 122.763 496.499 121.781 496.499 120.672V43.232C496.499 41.6107 496.712 40.416 497.139 39.648C497.651 38.88 498.59 38.368 499.955 38.112C501.32 37.856 503.539 37.728 506.611 37.728H510.323C524.744 37.728 535.838 40.032 543.603 44.64C551.368 49.248 555.251 55.776 555.251 64.224C555.251 75.488 547.528 83.8507 532.083 89.312C536.094 91.872 540.488 95.6693 545.267 100.704C550.131 105.653 554.355 111.712 557.939 118.88C558.28 119.307 558.451 119.904 558.451 120.672C558.451 121.781 558.067 122.763 557.299 123.616C556.531 124.384 555.55 124.768 554.355 124.768C552.904 124.768 551.71 124 550.771 122.464C538.824 102.752 527.347 92.896 516.339 92.896C513.523 92.896 509.598 93.28 504.563 94.048V120.672C504.563 121.781 504.179 122.763 503.411 123.616C502.643 124.384 501.704 124.768 500.595 124.768ZM504.563 86.112C511.219 85.9413 517.79 85.088 524.275 83.552C530.846 81.9307 536.307 79.4987 540.659 76.256C545.011 73.0133 547.187 69.0027 547.187 64.224C547.187 58.1653 543.944 53.5573 537.459 50.4C530.974 47.2427 521.8 45.664 509.939 45.664C507.55 45.664 505.758 45.7067 504.563 45.792V86.112ZM571.085 124C569.89 124 568.866 123.616 568.013 122.848C567.245 122.08 566.861 121.141 566.861 120.032C566.861 118.923 567.245 118.027 568.013 117.344C568.866 116.576 569.89 116.192 571.085 116.192H583.245V46.048H571.085C569.89 46.048 568.866 45.664 568.013 44.896C567.245 44.128 566.861 43.1893 566.861 42.08C566.861 40.9707 567.245 40.0747 568.013 39.392C568.866 38.624 569.89 38.24 571.085 38.24H603.469C604.578 38.24 605.517 38.624 606.285 39.392C607.053 40.0747 607.437 40.9707 607.437 42.08C607.437 43.1893 607.053 44.128 606.285 44.896C605.517 45.664 604.578 46.048 603.469 46.048H591.437V116.192H603.469C604.664 116.192 605.602 116.576 606.285 117.344C607.053 118.027 607.437 118.923 607.437 120.032C607.437 121.141 607.053 122.08 606.285 122.848C605.517 123.616 604.578 124 603.469 124H571.085ZM646.9 124.768C640.671 124.768 635.081 123.061 630.132 119.648C625.268 116.149 621.471 111.371 618.74 105.312C616.009 99.168 614.644 92.2987 614.644 84.704C614.644 76.1707 616.351 68.2773 619.764 61.024C623.177 53.7707 627.785 48.0533 633.588 43.872C639.391 39.6053 645.663 37.472 652.404 37.472C658.719 37.472 664.308 39.2213 669.172 42.72C674.036 46.1333 677.833 50.912 680.564 57.056C683.295 63.2 684.66 70.0693 684.66 77.664C684.66 86.1973 682.953 94.0907 679.54 101.344C676.127 108.512 671.519 114.229 665.716 118.496C659.913 122.677 653.641 124.768 646.9 124.768ZM647.412 116.832C652.532 116.832 657.268 115.083 661.62 111.584C666.057 108.085 669.599 103.349 672.244 97.376C674.889 91.4027 676.212 84.96 676.212 78.048C676.212 71.648 675.145 65.9733 673.012 61.024C670.879 56.0747 667.935 52.2347 664.18 49.504C660.511 46.7733 656.372 45.408 651.764 45.408C646.729 45.408 641.993 47.1573 637.556 50.656C633.119 54.0693 629.577 58.7627 626.932 64.736C624.372 70.7093 623.092 77.28 623.092 84.448C623.092 90.9333 624.159 96.6507 626.292 101.6C628.511 106.464 631.455 110.219 635.124 112.864C638.793 115.509 642.889 116.832 647.412 116.832ZM725.694 124.768C718.099 124.768 711.614 123.147 706.238 119.904C700.947 116.576 697.235 112.267 695.102 106.976C694.59 106.123 694.334 105.269 694.334 104.416C694.334 103.221 694.761 102.24 695.614 101.472C696.467 100.619 697.491 100.192 698.686 100.192C700.819 100.192 702.227 101.301 702.91 103.52C704.361 107.531 707.177 110.816 711.358 113.376C715.625 115.851 720.403 117.088 725.694 117.088C729.875 117.088 733.587 116.363 736.83 114.912C740.158 113.461 742.718 111.499 744.51 109.024C746.387 106.549 747.326 103.776 747.326 100.704C747.326 96.7787 745.705 93.3653 742.462 90.464C739.219 87.5627 733.715 85.0453 725.95 82.912C708.115 78.048 699.198 70.112 699.198 59.104C699.198 54.9227 700.35 51.2107 702.654 47.968C705.043 44.7253 708.457 42.1653 712.894 40.288C717.417 38.4107 722.665 37.472 728.638 37.472C737.086 37.472 743.657 39.0933 748.35 42.336C753.043 45.4933 755.39 49.76 755.39 55.136C755.39 56.2453 755.006 57.2267 754.238 58.08C753.47 58.848 752.531 59.232 751.422 59.232C750.398 59.232 749.502 58.8907 748.734 58.208C748.051 57.5253 747.667 56.7147 747.582 55.776C747.155 52.5333 745.193 49.888 741.694 47.84C738.281 45.792 733.801 44.768 728.254 44.768C721.598 44.768 716.435 46.0053 712.766 48.48C709.182 50.9547 707.39 54.368 707.39 58.72C707.39 62.3893 709.054 65.504 712.382 68.064C715.795 70.624 721.001 72.8853 727.998 74.848C737.214 77.408 744.083 80.7787 748.606 84.96C753.214 89.056 755.518 94.0907 755.518 100.064C755.518 104.672 754.153 108.896 751.422 112.736C748.691 116.491 745.022 119.435 740.414 121.568C735.806 123.701 730.899 124.768 725.694 124.768ZM264.595 271.768C263.486 271.768 262.504 271.384 261.651 270.616C260.883 269.763 260.499 268.781 260.499 267.672V190.104C260.499 188.483 260.67 187.331 261.011 186.648C261.438 185.88 262.376 185.325 263.827 184.984C265.278 184.643 267.667 184.472 270.995 184.472C286.952 184.472 298.899 186.733 306.835 191.256C314.771 195.779 318.739 202.307 318.739 210.84C318.739 218.179 316.008 224.152 310.547 228.76C305.086 233.283 298.515 236.525 290.835 238.488C283.155 240.451 275.774 241.475 268.691 241.56V267.672C268.691 268.781 268.307 269.763 267.539 270.616C266.771 271.384 265.79 271.768 264.595 271.768ZM268.691 233.496C273.811 233.411 279.571 232.728 285.971 231.448C292.371 230.168 298.088 227.864 303.123 224.536C308.158 221.123 310.675 216.557 310.675 210.84C310.675 204.952 307.432 200.429 300.947 197.272C294.462 194.115 285.203 192.536 273.171 192.536C270.867 192.536 269.374 192.579 268.691 192.664V233.496ZM336.348 271C335.239 271 334.257 270.573 333.404 269.72C332.551 268.867 332.124 267.885 332.124 266.776V189.336C332.124 188.227 332.508 187.288 333.276 186.52C334.129 185.667 335.153 185.24 336.348 185.24H390.492C391.687 185.24 392.668 185.624 393.436 186.392C394.204 187.16 394.588 188.141 394.588 189.336C394.588 190.445 394.161 191.427 393.308 192.28C392.54 193.048 391.601 193.432 390.492 193.432H340.316V222.232H384.348C385.543 222.232 386.481 222.616 387.164 223.384C387.932 224.067 388.316 225.005 388.316 226.2C388.316 227.395 387.932 228.419 387.164 229.272C386.396 230.04 385.457 230.424 384.348 230.424H340.316V262.808H390.236C391.431 262.808 392.412 263.192 393.18 263.96C393.948 264.728 394.332 265.667 394.332 266.776C394.332 267.971 393.905 268.995 393.052 269.848C392.284 270.616 391.345 271 390.236 271H336.348ZM432.033 271.768C430.924 271.768 429.985 271.384 429.217 270.616C428.449 269.763 428.065 268.781 428.065 267.672V193.304H403.873C402.764 193.304 401.782 192.92 400.929 192.152C400.161 191.384 399.777 190.445 399.777 189.336C399.777 188.227 400.161 187.288 400.929 186.52C401.782 185.667 402.764 185.24 403.873 185.24H460.321C461.43 185.24 462.369 185.624 463.137 186.392C463.905 187.16 464.289 188.141 464.289 189.336C464.289 190.445 463.905 191.384 463.137 192.152C462.369 192.92 461.43 193.304 460.321 193.304H436.129V267.672C436.129 268.781 435.702 269.763 434.849 270.616C434.081 271.384 433.142 271.768 432.033 271.768ZM500.444 271.768C492.849 271.768 486.364 270.147 480.988 266.904C475.697 263.576 471.985 259.267 469.852 253.976C469.34 253.123 469.084 252.269 469.084 251.416C469.084 250.221 469.511 249.24 470.364 248.472C471.217 247.619 472.241 247.192 473.436 247.192C475.569 247.192 476.977 248.301 477.66 250.52C479.111 254.531 481.927 257.816 486.108 260.376C490.375 262.851 495.153 264.088 500.444 264.088C504.625 264.088 508.337 263.363 511.58 261.912C514.908 260.461 517.468 258.499 519.26 256.024C521.137 253.549 522.076 250.776 522.076 247.704C522.076 243.779 520.455 240.365 517.212 237.464C513.969 234.563 508.465 232.045 500.7 229.912C482.865 225.048 473.948 217.112 473.948 206.104C473.948 201.923 475.1 198.211 477.404 194.968C479.793 191.725 483.207 189.165 487.644 187.288C492.167 185.411 497.415 184.472 503.388 184.472C511.836 184.472 518.407 186.093 523.1 189.336C527.793 192.493 530.14 196.76 530.14 202.136C530.14 203.245 529.756 204.227 528.988 205.08C528.22 205.848 527.281 206.232 526.172 206.232C525.148 206.232 524.252 205.891 523.484 205.208C522.801 204.525 522.417 203.715 522.332 202.776C521.905 199.533 519.943 196.888 516.444 194.84C513.031 192.792 508.551 191.768 503.004 191.768C496.348 191.768 491.185 193.005 487.516 195.48C483.932 197.955 482.14 201.368 482.14 205.72C482.14 209.389 483.804 212.504 487.132 215.064C490.545 217.624 495.751 219.885 502.748 221.848C511.964 224.408 518.833 227.779 523.356 231.96C527.964 236.056 530.268 241.091 530.268 247.064C530.268 251.672 528.903 255.896 526.172 259.736C523.441 263.491 519.772 266.435 515.164 268.568C510.556 270.701 505.649 271.768 500.444 271.768Z" fill="#7C4927"/>
<path d="M88.753 124.128L86.953 126.528L87.0196 126.578L87.0889 126.624L88.753 124.128ZM87.345 122.08L90.2185 121.218L90.2011 121.16L90.1814 121.103L87.345 122.08ZM76.849 91.616L79.6854 90.6388L78.814 88.1096L76.2019 88.6866L76.849 91.616ZM44.977 98.656L44.3299 95.7266L42.7755 96.07L42.1884 97.5497L44.977 98.656ZM35.633 122.208L32.8444 121.102L32.8135 121.18L32.787 121.259L35.633 122.208ZM34.225 124L32.635 121.456L32.5269 121.524L32.425 121.6L34.225 124ZM29.105 123.616L26.8628 125.609L26.9213 125.675L26.9837 125.737L29.105 123.616ZM28.593 118.496L25.7981 117.406L25.7855 117.438L25.7736 117.471L28.593 118.496ZM35.633 100.448L38.4279 101.538L40.7523 95.5793L34.6843 97.6019L35.633 100.448ZM33.329 100.832L33.0799 103.822L33.2042 103.832H33.329V100.832ZM30.769 99.68L28.5268 101.673L28.5853 101.739L28.6477 101.801L30.769 99.68ZM32.817 92.896L33.4053 95.8377L33.4335 95.8321L33.4616 95.8259L32.817 92.896ZM39.217 91.488L39.8616 94.4179L41.4269 94.0736L42.0108 92.5809L39.217 91.488ZM59.697 39.136L56.9556 37.9176L56.9279 37.9797L56.9032 38.0431L59.697 39.136ZM61.361 37.344L62.8179 39.9665L62.9241 39.9075L63.0251 39.8401L61.361 37.344ZM65.969 37.344L64.169 39.744L64.2709 39.8205L64.379 39.888L65.969 37.344ZM67.505 39.264L70.3421 38.289L70.318 38.2188L70.2904 38.1498L67.505 39.264ZM94.513 117.856L97.359 116.907L97.3547 116.894L97.3501 116.881L94.513 117.856ZM94.129 123.744L96.2503 125.865L96.3061 125.81L96.3589 125.751L94.129 123.744ZM74.033 83.936L74.6636 86.869L77.9621 86.1598L76.8721 82.9668L74.033 83.936ZM63.153 52.064L65.9921 51.0948L63.354 43.3667L60.3617 50.9647L63.153 52.064ZM48.433 89.44L45.6417 88.3407L43.5902 93.5498L49.0636 92.373L48.433 89.44ZM91.185 121.896C90.9726 121.896 90.7344 121.843 90.4171 121.632L87.0889 126.624C88.3076 127.437 89.6907 127.896 91.185 127.896V121.896ZM90.553 121.728C90.407 121.618 90.2989 121.486 90.2185 121.218L84.4715 122.942C84.9031 124.381 85.7337 125.614 86.953 126.528L90.553 121.728ZM90.1814 121.103L79.6854 90.6388L74.0126 92.5932L84.5086 123.057L90.1814 121.103ZM76.2019 88.6866L44.3299 95.7266L45.6241 101.585L77.4961 94.5454L76.2019 88.6866ZM42.1884 97.5497L32.8444 121.102L38.4216 123.314L47.7656 99.7623L42.1884 97.5497ZM32.787 121.259C32.7609 121.338 32.7379 121.369 32.73 121.379C32.7224 121.388 32.6997 121.416 32.635 121.456L35.815 126.544C37.0927 125.745 38.0039 124.582 38.4791 123.157L32.787 121.259ZM32.425 121.6C32.2616 121.723 32.1252 121.768 31.921 121.768V127.768C33.4234 127.768 34.823 127.301 36.025 126.4L32.425 121.6ZM31.921 121.768C31.5883 121.768 31.4184 121.687 31.2263 121.495L26.9837 125.737C28.3276 127.081 30.0351 127.768 31.921 127.768V121.768ZM31.3472 121.623C31.2309 121.492 31.081 121.259 31.081 120.672H25.081C25.081 122.475 25.6138 124.204 26.8628 125.609L31.3472 121.623ZM31.081 120.672C31.081 120.726 31.0752 120.661 31.1293 120.431C31.1803 120.214 31.2694 119.915 31.4124 119.521L25.7736 117.471C25.4041 118.487 25.081 119.617 25.081 120.672H31.081ZM31.3879 119.586L38.4279 101.538L32.8381 99.3578L25.7981 117.406L31.3879 119.586ZM34.6843 97.6019C34.2056 97.7615 33.7575 97.832 33.329 97.832V103.832C34.4365 103.832 35.5244 103.646 36.5817 103.294L34.6843 97.6019ZM33.5781 97.8424C33.212 97.8119 33.0374 97.7058 32.8903 97.5587L28.6477 101.801C29.8659 103.02 31.398 103.681 33.0799 103.822L33.5781 97.8424ZM33.0112 97.6869C32.8573 97.5137 32.745 97.302 32.745 96.864H26.745C26.745 98.6446 27.3154 100.31 28.5268 101.673L33.0112 97.6869ZM32.745 96.864C32.745 96.6182 32.8052 96.4079 33.0091 96.1458L28.2729 92.4622C27.2822 93.7361 26.745 95.2324 26.745 96.864H32.745ZM33.0091 96.1458C33.2202 95.8744 33.3424 95.8503 33.4053 95.8377L32.2287 89.9543C30.585 90.283 29.2565 91.1976 28.2729 92.4622L33.0091 96.1458ZM33.4616 95.8259L39.8616 94.4179L38.5724 88.5581L32.1724 89.9661L33.4616 95.8259ZM42.0108 92.5809L62.4908 40.2289L56.9032 38.0431L36.4232 90.3951L42.0108 92.5809ZM62.4384 40.3544C62.5028 40.2097 62.5915 40.0923 62.8179 39.9665L59.9041 34.7215C58.5945 35.449 57.5739 36.5263 56.9556 37.9176L62.4384 40.3544ZM63.0251 39.8401C63.4012 39.5894 63.5999 39.576 63.665 39.576V33.576C62.1941 33.576 60.8568 34.0746 59.6969 34.8478L63.0251 39.8401ZM63.665 39.576C63.8692 39.576 64.0056 39.6215 64.169 39.744L67.769 34.944C66.567 34.0425 65.1674 33.576 63.665 33.576V39.576ZM64.379 39.888C64.4469 39.9304 64.5799 40.029 64.7196 40.3782L70.2904 38.1498C69.7474 36.7923 68.8564 35.6109 67.559 34.8L64.379 39.888ZM64.6679 40.239L91.6759 118.831L97.3501 116.881L70.3421 38.289L64.6679 40.239ZM91.667 118.805C91.91 119.534 92.0762 120.094 92.1786 120.504C92.2295 120.707 92.2586 120.85 92.2738 120.941C92.2911 121.045 92.281 121.027 92.281 120.928H98.281C98.281 120.285 98.138 119.603 97.9994 119.048C97.8458 118.434 97.628 117.714 97.359 116.907L91.667 118.805ZM92.281 120.928C92.281 121.12 92.2359 121.363 91.8991 121.737L96.3589 125.751C97.5581 124.418 98.281 122.784 98.281 120.928H92.281ZM92.0077 121.623C91.8612 121.769 91.6714 121.896 91.185 121.896V127.896C93.088 127.896 94.8608 127.255 96.2503 125.865L92.0077 121.623ZM76.8721 82.9668L65.9921 51.0948L60.3139 53.0332L71.1939 84.9052L76.8721 82.9668ZM60.3617 50.9647L45.6417 88.3407L51.2243 90.5393L65.9443 53.1633L60.3617 50.9647ZM49.0636 92.373L74.6636 86.869L73.4024 81.003L47.8024 86.507L49.0636 92.373ZM123.201 120.032L121.734 122.649L121.734 122.649L123.201 120.032ZM109.761 106.72L107.159 108.213L107.163 108.221L107.168 108.229L109.761 106.72ZM110.401 62.816L107.718 61.4743L107.712 61.4865L110.401 62.816ZM125.249 44.384L123.449 41.984L123.441 41.99L123.433 41.9962L125.249 44.384ZM153.665 38.88L152.662 41.7073L152.703 41.7218L152.744 41.7351L153.665 38.88ZM161.217 42.464L159.595 44.9875L162.406 46.7946L163.9 43.8056L161.217 42.464ZM162.497 41.184L161.009 38.5793L161.009 38.5793L162.497 41.184ZM161.473 55.776L159.352 57.8973L159.407 57.9531L159.466 58.0059L161.473 55.776ZM160.321 51.936H163.321V50.6523L162.392 49.7659L160.321 51.936ZM153.793 47.456L152.415 50.1206L152.451 50.1397L152.489 50.1576L153.793 47.456ZM117.697 66.656L114.992 65.3578L114.989 65.3655L114.985 65.3733L117.697 66.656ZM127.681 113.12L126.198 115.728L126.218 115.739L126.237 115.75L127.681 113.12ZM165.697 104.672L163.419 102.72L163.366 102.782L163.315 102.848L165.697 104.672ZM167.105 103.52L168.219 106.305L168.335 106.259L168.447 106.203L167.105 103.52ZM171.713 104.288L169.592 106.409L169.709 106.527L169.839 106.631L171.713 104.288ZM172.225 109.664L169.947 107.712L169.875 107.795L169.81 107.884L172.225 109.664ZM158.913 120.928L160.22 123.628L160.237 123.62L160.255 123.611L158.913 120.928ZM141.761 121.768C135.51 121.768 129.832 120.31 124.668 117.415L121.734 122.649C127.834 126.069 134.529 127.768 141.761 127.768V121.768ZM124.668 117.415C119.515 114.527 115.419 110.477 112.354 105.211L107.168 108.229C110.759 114.398 115.623 119.223 121.734 122.649L124.668 117.415ZM112.363 105.227C109.327 99.9327 107.769 93.8032 107.769 86.752H101.769C101.769 94.7195 103.539 101.902 107.159 108.213L112.363 105.227ZM107.769 86.752C107.769 78.8567 109.537 71.3324 113.09 64.1455L107.712 61.4865C103.755 69.4889 101.769 77.9219 101.769 86.752H107.769ZM113.084 64.1576C116.746 56.8352 121.416 51.0683 127.065 46.7718L123.433 41.9962C116.965 46.9157 111.736 53.4368 107.718 61.4744L113.084 64.1576ZM127.049 46.784C132.772 42.4914 138.47 40.472 144.193 40.472V34.472C136.945 34.472 130.014 37.0606 123.449 41.984L127.049 46.784ZM144.193 40.472C147.62 40.472 150.42 40.912 152.662 41.7073L154.668 36.0527C151.619 34.9707 148.105 34.472 144.193 34.472V40.472ZM152.744 41.7351C155.137 42.507 157.419 43.5888 159.595 44.9875L162.839 39.9405C160.236 38.2671 157.484 36.9597 154.586 36.0249L152.744 41.7351ZM163.9 43.8056C163.889 43.8275 163.878 43.8461 163.867 43.8605C163.857 43.8748 163.85 43.8816 163.85 43.8813C163.851 43.8807 163.887 43.8452 163.985 43.7887L161.009 38.5793C160.002 39.1543 159.104 39.9816 158.534 41.1224L163.9 43.8056ZM163.985 43.7887C164.078 43.7356 164.237 43.672 164.545 43.672V37.672C163.317 37.672 162.11 37.9498 161.009 38.5793L163.985 43.7887ZM164.545 43.672C164.878 43.672 165.048 43.7533 165.24 43.9453L169.482 39.7027C168.138 38.3587 166.431 37.672 164.545 37.672V43.672ZM165.24 43.9453C165.432 44.1374 165.513 44.3072 165.513 44.64H171.513C171.513 42.7541 170.826 41.0466 169.482 39.7027L165.24 43.9453ZM165.513 44.64V52.832H171.513V44.64H165.513ZM165.513 52.832C165.513 53.0718 165.457 53.3095 165.112 53.6547L169.354 57.8973C170.716 56.5358 171.513 54.8108 171.513 52.832H165.513ZM165.112 53.6547C164.92 53.8467 164.75 53.928 164.417 53.928V59.928C166.303 59.928 168.01 59.2413 169.354 57.8973L165.112 53.6547ZM164.417 53.928C164.077 53.928 163.803 53.8373 163.48 53.5461L159.466 58.0059C160.849 59.2506 162.539 59.928 164.417 59.928V53.928ZM163.594 53.6547C163.402 53.4626 163.321 53.2927 163.321 52.96H157.321C157.321 54.8459 158.008 56.5534 159.352 57.8973L163.594 53.6547ZM163.321 52.96V51.936H157.321V52.96H163.321ZM162.392 49.7659C160.276 47.7454 157.837 46.0771 155.097 44.7543L152.489 50.1576C154.698 51.2243 156.612 52.5426 158.25 54.1061L162.392 49.7659ZM155.171 44.7913C152.133 43.2196 148.414 42.536 144.193 42.536V48.536C147.823 48.536 150.504 49.1324 152.415 50.1206L155.171 44.7913ZM144.193 42.536C138.336 42.536 132.786 44.7856 127.594 48.9575L131.352 53.6345C135.718 50.1264 139.981 48.536 144.193 48.536V42.536ZM127.594 48.9575C122.415 53.1194 118.228 58.6174 114.992 65.3578L120.402 67.9542C123.31 61.8946 126.974 57.1526 131.352 53.6345L127.594 48.9575ZM114.985 65.3733C111.806 72.0947 110.217 79.2321 110.217 86.752H116.217C116.217 80.1065 117.615 73.8466 120.409 67.9387L114.985 65.3733ZM110.217 86.752C110.217 93.2587 111.642 99.0887 114.595 104.139L119.775 101.109C117.438 97.1139 116.217 92.3627 116.217 86.752H110.217ZM114.595 104.139C117.494 109.095 121.366 112.98 126.198 115.728L129.164 110.512C125.292 108.311 122.166 105.199 119.775 101.109L114.595 104.139ZM126.237 115.75C131.038 118.386 136.229 119.704 141.761 119.704V113.704C137.224 113.704 133.028 112.633 129.125 110.49L126.237 115.75ZM141.761 119.704C152.54 119.704 161.387 115.233 168.079 106.496L163.315 102.848C157.719 110.154 150.609 113.704 141.761 113.704V119.704ZM167.975 106.624C168.148 106.423 168.268 106.311 168.333 106.258C168.402 106.201 168.364 106.248 168.219 106.305L165.991 100.735C164.901 101.171 164.051 101.982 163.419 102.72L167.975 106.624ZM168.447 106.203C168.469 106.192 168.591 106.136 168.897 106.136V100.136C167.838 100.136 166.765 100.336 165.763 100.837L168.447 106.203ZM168.897 106.136C169.23 106.136 169.4 106.217 169.592 106.409L173.834 102.167C172.49 100.823 170.783 100.136 168.897 100.136V106.136ZM169.839 106.631C169.893 106.674 169.907 106.699 169.922 106.732C169.942 106.779 169.993 106.924 169.993 107.232H175.993C175.993 105.215 175.278 103.298 173.587 101.945L169.839 106.631ZM169.993 107.232C169.993 107.498 169.959 107.644 169.94 107.705C169.924 107.756 169.92 107.744 169.947 107.712L174.503 111.616C175.606 110.329 175.993 108.752 175.993 107.232H169.993ZM169.81 107.884C166.501 112.375 162.428 115.816 157.571 118.245L160.255 123.611C165.979 120.749 170.781 116.681 174.64 111.444L169.81 107.884ZM157.606 118.228C152.742 120.581 147.474 121.768 141.761 121.768V127.768C148.336 127.768 154.503 126.395 160.22 123.628L157.606 118.228ZM201.826 120.032L200.359 122.649L200.359 122.649L201.826 120.032ZM188.386 106.72L185.784 108.213L185.788 108.221L185.793 108.229L188.386 106.72ZM189.026 62.816L186.343 61.4743L186.337 61.4865L189.026 62.816ZM203.874 44.384L202.074 41.984L202.066 41.99L202.058 41.9962L203.874 44.384ZM232.29 38.88L231.287 41.7073L231.328 41.7218L231.369 41.7351L232.29 38.88ZM239.842 42.464L238.22 44.9875L241.031 46.7946L242.525 43.8056L239.842 42.464ZM241.122 41.184L239.634 38.5793L239.634 38.5793L241.122 41.184ZM240.098 55.776L237.977 57.8973L238.032 57.9531L238.091 58.0059L240.098 55.776ZM238.946 51.936H241.946V50.6523L241.017 49.7659L238.946 51.936ZM232.418 47.456L231.04 50.1206L231.076 50.1397L231.114 50.1576L232.418 47.456ZM196.322 66.656L193.617 65.3578L193.614 65.3655L193.61 65.3733L196.322 66.656ZM206.306 113.12L204.823 115.728L204.843 115.739L204.862 115.75L206.306 113.12ZM244.322 104.672L242.044 102.72L241.991 102.782L241.94 102.848L244.322 104.672ZM245.73 103.52L246.844 106.305L246.96 106.259L247.072 106.203L245.73 103.52ZM250.338 104.288L248.217 106.409L248.334 106.527L248.464 106.631L250.338 104.288ZM250.85 109.664L248.572 107.712L248.5 107.795L248.435 107.884L250.85 109.664ZM237.538 120.928L238.845 123.628L238.862 123.62L238.88 123.611L237.538 120.928ZM220.386 121.768C214.135 121.768 208.457 120.31 203.293 117.415L200.359 122.649C206.459 126.069 213.154 127.768 220.386 127.768V121.768ZM203.293 117.415C198.14 114.527 194.044 110.477 190.979 105.211L185.793 108.229C189.384 114.398 194.248 119.223 200.359 122.649L203.293 117.415ZM190.988 105.227C187.952 99.9327 186.394 93.8032 186.394 86.752H180.394C180.394 94.7195 182.164 101.902 185.784 108.213L190.988 105.227ZM186.394 86.752C186.394 78.8567 188.162 71.3324 191.715 64.1455L186.337 61.4865C182.38 69.4889 180.394 77.9219 180.394 86.752H186.394ZM191.709 64.1576C195.371 56.8352 200.041 51.0683 205.69 46.7718L202.058 41.9962C195.59 46.9157 190.361 53.4368 186.343 61.4744L191.709 64.1576ZM205.674 46.784C211.397 42.4914 217.095 40.472 222.818 40.472V34.472C215.57 34.472 208.639 37.0606 202.074 41.984L205.674 46.784ZM222.818 40.472C226.245 40.472 229.045 40.912 231.287 41.7073L233.293 36.0527C230.244 34.9707 226.73 34.472 222.818 34.472V40.472ZM231.369 41.7351C233.762 42.507 236.044 43.5888 238.22 44.9875L241.464 39.9405C238.861 38.2671 236.109 36.9597 233.211 36.0249L231.369 41.7351ZM242.525 43.8056C242.514 43.8275 242.503 43.8461 242.492 43.8605C242.482 43.8748 242.475 43.8816 242.475 43.8813C242.476 43.8807 242.512 43.8452 242.61 43.7887L239.634 38.5793C238.627 39.1543 237.729 39.9816 237.159 41.1224L242.525 43.8056ZM242.61 43.7887C242.703 43.7356 242.862 43.672 243.17 43.672V37.672C241.942 37.672 240.735 37.9498 239.634 38.5793L242.61 43.7887ZM243.17 43.672C243.503 43.672 243.673 43.7533 243.865 43.9453L248.107 39.7027C246.763 38.3587 245.056 37.672 243.17 37.672V43.672ZM243.865 43.9453C244.057 44.1374 244.138 44.3072 244.138 44.64H250.138C250.138 42.7541 249.451 41.0466 248.107 39.7027L243.865 43.9453ZM244.138 44.64V52.832H250.138V44.64H244.138ZM244.138 52.832C244.138 53.0718 244.082 53.3095 243.737 53.6547L247.979 57.8973C249.341 56.5358 250.138 54.8108 250.138 52.832H244.138ZM243.737 53.6547C243.545 53.8467 243.375 53.928 243.042 53.928V59.928C244.928 59.928 246.635 59.2413 247.979 57.8973L243.737 53.6547ZM243.042 53.928C242.702 53.928 242.428 53.8373 242.105 53.5461L238.091 58.0059C239.474 59.2506 241.164 59.928 243.042 59.928V53.928ZM242.219 53.6547C242.027 53.4626 241.946 53.2927 241.946 52.96H235.946C235.946 54.8459 236.633 56.5534 237.977 57.8973L242.219 53.6547ZM241.946 52.96V51.936H235.946V52.96H241.946ZM241.017 49.7659C238.901 47.7454 236.462 46.0771 233.722 44.7543L231.114 50.1576C233.323 51.2243 235.237 52.5426 236.875 54.1061L241.017 49.7659ZM233.796 44.7913C230.758 43.2196 227.039 42.536 222.818 42.536V48.536C226.448 48.536 229.129 49.1324 231.04 50.1206L233.796 44.7913ZM222.818 42.536C216.961 42.536 211.411 44.7856 206.219 48.9575L209.977 53.6345C214.343 50.1264 218.606 48.536 222.818 48.536V42.536ZM206.219 48.9575C201.04 53.1194 196.853 58.6174 193.617 65.3578L199.027 67.9542C201.935 61.8946 205.599 57.1526 209.977 53.6345L206.219 48.9575ZM193.61 65.3733C190.431 72.0947 188.842 79.2321 188.842 86.752H194.842C194.842 80.1065 196.24 73.8466 199.034 67.9387L193.61 65.3733ZM188.842 86.752C188.842 93.2587 190.267 99.0887 193.22 104.139L198.4 101.109C196.063 97.1139 194.842 92.3627 194.842 86.752H188.842ZM193.22 104.139C196.119 109.095 199.991 112.98 204.823 115.728L207.789 110.512C203.917 108.311 200.791 105.199 198.4 101.109L193.22 104.139ZM204.862 115.75C209.663 118.386 214.854 119.704 220.386 119.704V113.704C215.849 113.704 211.653 112.633 207.75 110.49L204.862 115.75ZM220.386 119.704C231.165 119.704 240.012 115.233 246.704 106.496L241.94 102.848C236.344 110.154 229.234 113.704 220.386 113.704V119.704ZM246.6 106.624C246.773 106.423 246.893 106.311 246.958 106.258C247.027 106.201 246.989 106.248 246.844 106.305L244.616 100.735C243.526 101.171 242.676 101.982 242.044 102.72L246.6 106.624ZM247.072 106.203C247.094 106.192 247.216 106.136 247.522 106.136V100.136C246.463 100.136 245.39 100.336 244.388 100.837L247.072 106.203ZM247.522 106.136C247.855 106.136 248.025 106.217 248.217 106.409L252.459 102.167C251.115 100.823 249.408 100.136 247.522 100.136V106.136ZM248.464 106.631C248.518 106.674 248.532 106.699 248.547 106.732C248.567 106.779 248.618 106.924 248.618 107.232H254.618C254.618 105.215 253.903 103.298 252.212 101.945L248.464 106.631ZM248.618 107.232C248.618 107.498 248.584 107.644 248.565 107.705C248.549 107.756 248.545 107.744 248.572 107.712L253.128 111.616C254.231 110.329 254.618 108.752 254.618 107.232H248.618ZM248.435 107.884C245.126 112.375 241.053 115.816 236.196 118.245L238.88 123.611C244.604 120.749 249.406 116.681 253.265 111.444L248.435 107.884ZM236.231 118.228C231.367 120.581 226.099 121.768 220.386 121.768V127.768C226.961 127.768 233.128 126.395 238.845 123.628L236.231 118.228ZM267.779 122.72L265.658 124.841L265.658 124.841L267.779 122.72ZM267.651 39.52L265.53 37.3987L265.53 37.3987L267.651 39.52ZM274.691 46.432V43.432H271.691V46.432H274.691ZM274.691 75.232H271.691V78.232H274.691V75.232ZM321.539 76.384L319.297 78.3771L319.414 78.509L319.546 78.6262L321.539 76.384ZM321.539 82.272L323.66 84.3933L323.716 84.3375L323.769 84.2789L321.539 82.272ZM274.691 83.424V80.424H271.691V83.424H274.691ZM274.691 115.808H271.691V118.808H274.691V115.808ZM327.427 122.848L329.548 124.969L329.548 124.969L327.427 122.848ZM270.723 121C270.483 121 270.246 120.944 269.9 120.599L265.658 124.841C267.019 126.203 268.744 127 270.723 127V121ZM269.9 120.599C269.555 120.253 269.499 120.016 269.499 119.776H263.499C263.499 121.755 264.296 123.48 265.658 124.841L269.9 120.599ZM269.499 119.776V42.336H263.499V119.776H269.499ZM269.499 42.336C269.499 42.0032 269.58 41.8334 269.772 41.6413L265.53 37.3987C264.186 38.7426 263.499 40.4501 263.499 42.336H269.499ZM269.772 41.6413C270.069 41.3442 270.333 41.24 270.723 41.24V35.24C268.724 35.24 266.939 35.9892 265.53 37.3987L269.772 41.6413ZM270.723 41.24H324.867V35.24H270.723V41.24ZM324.867 41.24C325.353 41.24 325.543 41.3668 325.69 41.5133L329.932 37.2707C328.543 35.8812 326.77 35.24 324.867 35.24V41.24ZM325.69 41.5133C325.836 41.6598 325.963 41.8496 325.963 42.336H331.963C331.963 40.433 331.322 38.6602 329.932 37.2707L325.69 41.5133ZM325.963 42.336C325.963 42.5758 325.907 42.8135 325.562 43.1587L329.804 47.4013C331.166 46.0399 331.963 44.3148 331.963 42.336H325.963ZM325.562 43.1587C325.37 43.3507 325.2 43.432 324.867 43.432V49.432C326.753 49.432 328.46 48.7453 329.804 47.4013L325.562 43.1587ZM324.867 43.432H274.691V49.432H324.867V43.432ZM271.691 46.432V75.232H277.691V46.432H271.691ZM274.691 78.232H318.723V72.232H274.691V78.232ZM318.723 78.232C318.999 78.232 319.136 78.2759 319.187 78.2966C319.227 78.3129 319.255 78.3306 319.297 78.3771L323.781 74.3909C322.435 72.876 320.621 72.232 318.723 72.232V78.232ZM319.546 78.6262C319.592 78.6676 319.61 78.6961 319.626 78.7359C319.647 78.7865 319.691 78.924 319.691 79.2H325.691C325.691 77.302 325.047 75.4884 323.532 74.1418L319.546 78.6262ZM319.691 79.2C319.691 79.6866 319.56 79.9867 319.309 80.2651L323.769 84.2789C325.054 82.8506 325.691 81.1027 325.691 79.2H319.691ZM319.418 80.1507C319.226 80.3427 319.056 80.424 318.723 80.424V86.424C320.609 86.424 322.316 85.7373 323.66 84.3933L319.418 80.1507ZM318.723 80.424H274.691V86.424H318.723V80.424ZM271.691 83.424V115.808H277.691V83.424H271.691ZM274.691 118.808H324.611V112.808H274.691V118.808ZM324.611 118.808C325.097 118.808 325.287 118.935 325.434 119.081L329.676 114.839C328.287 113.449 326.514 112.808 324.611 112.808V118.808ZM325.434 119.081C325.626 119.273 325.707 119.443 325.707 119.776H331.707C331.707 117.89 331.02 116.183 329.676 114.839L325.434 119.081ZM325.707 119.776C325.707 120.166 325.603 120.43 325.306 120.727L329.548 124.969C330.958 123.56 331.707 121.775 331.707 119.776H325.707ZM325.306 120.727C325.114 120.919 324.944 121 324.611 121V127C326.497 127 328.204 126.313 329.548 124.969L325.306 120.727ZM324.611 121H270.723V127H324.611V121ZM348.488 119.904L346.891 122.443L346.914 122.458L346.939 122.473L348.488 119.904ZM337.352 106.976L340.134 105.854L340.046 105.635L339.924 105.433L337.352 106.976ZM337.864 101.472L339.871 103.702L339.93 103.649L339.985 103.593L337.864 101.472ZM345.16 103.52L342.293 104.402L342.314 104.472L342.339 104.54L345.16 103.52ZM353.608 113.376L352.042 115.935L352.072 115.953L352.103 115.971L353.608 113.376ZM379.08 114.912L377.881 112.162L377.868 112.168L377.855 112.174L379.08 114.912ZM386.76 109.024L384.37 107.211L384.35 107.237L384.33 107.264L386.76 109.024ZM384.712 90.464L386.712 88.2283L386.712 88.2283L384.712 90.464ZM368.2 82.912L368.995 80.0192L368.989 80.0177L368.2 82.912ZM344.904 47.968L342.489 46.1884L342.473 46.2093L342.458 46.2304L344.904 47.968ZM355.144 40.288L353.994 37.5172L353.984 37.5211L353.975 37.5251L355.144 40.288ZM390.6 42.336L388.895 44.8042L388.91 44.8148L388.925 44.8252L390.6 42.336ZM396.488 58.08L398.609 60.2013L398.665 60.1455L398.718 60.0869L396.488 58.08ZM390.984 58.208L388.863 60.3293L388.925 60.3917L388.991 60.4502L390.984 58.208ZM389.832 55.776L392.82 55.5044L392.814 55.4444L392.806 55.3846L389.832 55.776ZM383.944 47.84L382.401 50.4125L382.414 50.4208L382.428 50.429L383.944 47.84ZM355.016 48.48L353.339 45.9928L353.325 46.002L353.311 46.0113L355.016 48.48ZM354.632 68.064L352.803 70.4419L352.817 70.453L352.832 70.464L354.632 68.064ZM370.248 74.848L369.438 77.7365L369.445 77.7386L370.248 74.848ZM390.856 84.96L388.819 87.1628L388.841 87.1827L388.863 87.2022L390.856 84.96ZM393.672 112.736L396.098 114.501L396.108 114.488L396.117 114.475L393.672 112.736ZM382.664 121.568L381.404 118.846L381.404 118.846L382.664 121.568ZM367.944 121.768C360.781 121.768 354.856 120.242 350.037 117.335L346.939 122.473C352.872 126.052 359.918 127.768 367.944 127.768V121.768ZM350.085 117.365C345.275 114.339 342.009 110.503 340.134 105.854L334.57 108.098C336.962 114.03 341.119 118.813 346.891 122.443L350.085 117.365ZM339.924 105.433C339.645 104.967 339.584 104.641 339.584 104.416H333.584C333.584 105.898 334.035 107.278 334.78 108.519L339.924 105.433ZM339.584 104.416C339.584 104.033 339.678 103.875 339.871 103.702L335.857 99.2421C334.343 100.605 333.584 102.41 333.584 104.416H339.584ZM339.985 103.593C340.282 103.296 340.546 103.192 340.936 103.192V97.192C338.937 97.192 337.152 97.9412 335.743 99.3507L339.985 103.593ZM340.936 103.192C341.462 103.192 341.656 103.318 341.735 103.38C341.837 103.461 342.078 103.705 342.293 104.402L348.027 102.638C347.559 101.117 346.755 99.6968 345.449 98.6675C344.12 97.6206 342.543 97.192 340.936 97.192V103.192ZM342.339 104.54C344.055 109.285 347.371 113.075 352.042 115.935L355.174 110.817C351.483 108.557 349.166 105.776 347.981 102.5L342.339 104.54ZM352.103 115.971C356.86 118.73 362.164 120.088 367.944 120.088V114.088C363.142 114.088 358.889 112.971 355.113 110.781L352.103 115.971ZM367.944 120.088C372.474 120.088 376.615 119.301 380.305 117.65L377.855 112.174C375.06 113.424 371.777 114.088 367.944 114.088V120.088ZM380.279 117.662C384.005 116.038 387.029 113.768 389.19 110.784L384.33 107.264C382.907 109.229 380.811 110.885 377.881 112.162L380.279 117.662ZM389.15 110.837C391.418 107.847 392.576 104.439 392.576 100.704H386.576C386.576 103.113 385.856 105.252 384.37 107.211L389.15 110.837ZM392.576 100.704C392.576 95.827 390.514 91.6298 386.712 88.2283L382.712 92.6997C385.395 95.1009 386.576 97.7303 386.576 100.704H392.576ZM386.712 88.2283C382.942 84.8545 376.889 82.1879 368.995 80.0192L367.405 85.8048C375.042 87.9028 379.997 90.2709 382.712 92.6997L386.712 88.2283ZM368.989 80.0177C360.297 77.6471 354.105 74.6081 350.13 71.071C346.251 67.6182 344.448 63.6737 344.448 59.104H338.448C338.448 65.5423 341.104 71.0698 346.142 75.553C351.084 79.9518 358.268 83.3129 367.411 85.8063L368.989 80.0177ZM344.448 59.104C344.448 55.5115 345.425 52.4138 347.35 49.7056L342.458 46.2304C339.775 50.0076 338.448 54.3338 338.448 59.104H344.448ZM347.319 49.7476C349.331 47.0168 352.274 44.7597 356.313 43.0509L353.975 37.5251C349.139 39.571 345.255 42.4338 342.489 46.1884L347.319 49.7476ZM356.294 43.0588C360.382 41.3621 365.225 40.472 370.888 40.472V34.472C364.604 34.472 358.952 35.4592 353.994 37.5172L356.294 43.0588ZM370.888 40.472C379.004 40.472 384.89 42.0376 388.895 44.8042L392.305 39.8678C386.923 36.149 379.668 34.472 370.888 34.472V40.472ZM388.925 44.8252C392.842 47.4598 394.64 50.8192 394.64 55.136H400.64C400.64 48.7008 397.745 43.5269 392.275 39.8468L388.925 44.8252ZM394.64 55.136C394.64 55.4763 394.549 55.7495 394.258 56.0731L398.718 60.0869C399.963 58.7038 400.64 57.0144 400.64 55.136H394.64ZM394.367 55.9587C394.175 56.1507 394.005 56.232 393.672 56.232V62.232C395.558 62.232 397.265 61.5453 398.609 60.2013L394.367 55.9587ZM393.672 56.232C393.386 56.232 393.198 56.1622 392.977 55.9658L388.991 60.4502C390.306 61.6192 391.91 62.232 393.672 62.232V56.232ZM393.105 56.0867C392.906 55.8871 392.84 55.7258 392.82 55.5044L386.844 56.0476C386.995 57.7035 387.697 59.1635 388.863 60.3293L393.105 56.0867ZM392.806 55.3846C392.23 51.005 389.546 47.6431 385.46 45.251L382.428 50.429C385.339 52.1329 386.581 54.0617 386.858 56.1674L392.806 55.3846ZM385.487 45.2675C381.459 42.8506 376.39 41.768 370.504 41.768V47.768C375.711 47.768 379.602 48.7334 382.401 50.4125L385.487 45.2675ZM370.504 41.768C363.533 41.768 357.695 43.0547 353.339 45.9928L356.693 50.9672C359.676 48.9559 364.163 47.768 370.504 47.768V41.768ZM353.311 46.0113C348.917 49.0455 346.64 53.3813 346.64 58.72H352.64C352.64 55.3547 353.947 52.8638 356.721 50.9487L353.311 46.0113ZM346.64 58.72C346.64 63.4634 348.858 67.407 352.803 70.4419L356.461 65.6861C353.75 63.601 352.64 61.3153 352.64 58.72H346.64ZM352.832 70.464C356.68 73.35 362.298 75.734 369.438 77.7365L371.058 71.9595C364.203 70.0366 359.411 67.898 356.432 65.664L352.832 70.464ZM369.445 77.7386C378.431 80.2347 384.789 83.4362 388.819 87.1628L392.893 82.7572C387.878 78.1212 380.497 74.5813 371.051 71.9574L369.445 77.7386ZM388.863 87.2022C392.854 90.7498 394.768 94.9785 394.768 100.064H400.768C400.768 93.2029 398.074 87.3622 392.849 82.7178L388.863 87.2022ZM394.768 100.064C394.768 104.034 393.605 107.653 391.227 110.997L396.117 114.475C399.2 110.139 400.768 105.31 400.768 100.064H394.768ZM391.246 110.971C388.843 114.275 385.592 116.906 381.404 118.846L383.924 124.29C388.952 121.963 393.039 118.707 396.098 114.501L391.246 110.971ZM381.404 118.846C377.201 120.791 372.725 121.768 367.944 121.768V127.768C373.573 127.768 378.911 126.611 383.924 124.29L381.404 118.846ZM425.257 119.648L423.505 122.083L423.529 122.101L423.554 122.118L425.257 119.648ZM413.865 105.312L411.124 106.53L411.127 106.538L411.13 106.545L413.865 105.312ZM414.889 61.024L417.603 62.3014L417.603 62.3014L414.889 61.024ZM428.713 43.872L430.467 46.3059L430.479 46.2975L430.49 46.2889L428.713 43.872ZM464.297 42.72L462.545 45.1554L462.559 45.1656L462.574 45.1757L464.297 42.72ZM475.689 57.056L472.948 58.2744L472.948 58.2744L475.689 57.056ZM474.665 101.344L477.374 102.634L477.379 102.621L474.665 101.344ZM460.841 118.496L462.595 120.93L462.607 120.921L462.618 120.913L460.841 118.496ZM456.745 111.584L454.888 109.228L454.876 109.237L454.865 109.246L456.745 111.584ZM467.369 97.376L470.112 98.5908L470.112 98.5908L467.369 97.376ZM468.137 61.024L465.382 62.2115L465.382 62.2115L468.137 61.024ZM459.305 49.504L457.514 51.9107L457.527 51.9205L457.54 51.9302L459.305 49.504ZM432.681 50.656L434.51 53.0339L434.524 53.0229L434.538 53.0118L432.681 50.656ZM422.057 64.736L419.314 63.5212L419.307 63.5377L419.3 63.5542L422.057 64.736ZM421.417 101.6L418.662 102.787L418.674 102.816L418.688 102.845L421.417 101.6ZM430.249 112.864L428.495 115.298L428.495 115.298L430.249 112.864ZM442.025 121.768C436.381 121.768 431.39 120.233 426.96 117.178L423.554 122.118C429.023 125.889 435.211 127.768 442.025 127.768V121.768ZM427.009 117.213C422.618 114.054 419.138 109.711 416.6 104.079L411.13 106.545C414.053 113.03 418.168 118.244 423.505 122.083L427.009 117.213ZM416.606 104.094C414.067 98.3799 412.769 91.9333 412.769 84.704H406.769C406.769 92.664 408.202 99.9561 411.124 106.53L416.606 104.094ZM412.769 84.704C412.769 76.5832 414.39 69.1296 417.603 62.3014L412.175 59.7466C408.561 67.425 406.769 75.7581 406.769 84.704H412.769ZM417.603 62.3014C420.827 55.4522 425.125 50.1549 430.467 46.3059L426.959 41.4381C420.695 45.9517 415.778 52.0892 412.175 59.7466L417.603 62.3014ZM430.49 46.2889C435.815 42.3735 441.472 40.472 447.529 40.472V34.472C440.103 34.472 433.216 36.8371 426.936 41.455L430.49 46.2889ZM447.529 40.472C453.251 40.472 458.22 42.0443 462.545 45.1554L466.049 40.2846C460.646 36.3983 454.436 34.472 447.529 34.472V40.472ZM462.574 45.1757C466.936 48.237 470.408 52.5607 472.948 58.2744L478.43 55.8376C475.509 49.2633 471.386 44.0296 466.02 40.2643L462.574 45.1757ZM472.948 58.2744C475.487 63.9881 476.785 70.4347 476.785 77.664H482.785C482.785 69.704 481.352 62.4119 478.43 55.8376L472.948 58.2744ZM476.785 77.664C476.785 85.7848 475.164 93.2384 471.951 100.067L477.379 102.621C480.993 94.943 482.785 86.6099 482.785 77.664H476.785ZM471.956 100.054C468.734 106.822 464.428 112.135 459.064 116.079L462.618 120.913C468.859 116.324 473.77 110.202 477.374 102.634L471.956 100.054ZM459.087 116.062C453.762 119.899 448.097 121.768 442.025 121.768V127.768C449.435 127.768 456.314 125.455 462.595 120.93L459.087 116.062ZM442.537 119.832C448.404 119.832 453.791 117.808 458.625 113.922L454.865 109.246C450.995 112.358 446.91 113.832 442.537 113.832V119.832ZM458.602 113.94C463.48 110.094 467.3 104.941 470.112 98.5908L464.626 96.1612C462.147 101.758 458.885 106.076 454.888 109.228L458.602 113.94ZM470.112 98.5908C472.937 92.2129 474.337 85.3537 474.337 78.048H468.337C468.337 84.5663 467.092 90.5924 464.626 96.1612L470.112 98.5908ZM474.337 78.048C474.337 71.3149 473.214 65.2243 470.892 59.8365L465.382 62.2115C467.326 66.7223 468.337 71.9811 468.337 78.048H474.337ZM470.892 59.8365C468.58 54.4735 465.325 50.173 461.07 47.0778L457.54 51.9302C460.794 54.2964 463.427 57.6758 465.382 62.2115L470.892 59.8365ZM461.096 47.0973C456.905 43.9783 452.137 42.408 446.889 42.408V48.408C450.857 48.408 454.366 49.5684 457.514 51.9107L461.096 47.0973ZM446.889 42.408C441.098 42.408 435.722 44.4382 430.824 48.3002L434.538 53.0118C438.515 49.8765 442.61 48.408 446.889 48.408V42.408ZM430.852 48.2781C425.956 52.0442 422.128 57.1668 419.314 63.5212L424.8 65.9508C427.277 60.3585 430.531 56.0945 434.51 53.0339L430.852 48.2781ZM419.3 63.5542C416.564 69.9378 415.217 76.9158 415.217 84.448H421.217C421.217 77.6442 422.43 71.4809 424.814 65.9178L419.3 63.5542ZM415.217 84.448C415.217 91.2604 416.338 97.395 418.662 102.787L424.172 100.413C422.23 95.9063 421.217 90.6063 421.217 84.448H415.217ZM418.688 102.845C421.083 108.097 424.331 112.296 428.495 115.298L432.003 110.43C428.828 108.141 426.188 104.831 424.146 100.355L418.688 102.845ZM428.495 115.298C432.675 118.311 437.384 119.832 442.537 119.832V113.832C438.644 113.832 435.162 112.708 432.003 110.43L428.495 115.298ZM497.651 123.616L495.421 125.623L495.527 125.74L495.644 125.846L497.651 123.616ZM497.139 39.648L494.643 37.9839L494.575 38.0849L494.517 38.1911L497.139 39.648ZM499.955 38.112L500.508 41.0606L500.508 41.0606L499.955 38.112ZM543.603 44.64L542.072 47.22L542.072 47.22L543.603 44.64ZM532.083 89.312L531.083 86.4836L525.287 88.533L530.469 91.8408L532.083 89.312ZM545.267 100.704L543.091 102.769L543.109 102.788L543.127 102.807L545.267 100.704ZM557.939 118.88L555.256 120.222L555.398 120.506L555.596 120.754L557.939 118.88ZM557.299 123.616L559.42 125.737L559.476 125.682L559.529 125.623L557.299 123.616ZM550.771 122.464L548.205 124.019L548.211 124.028L550.771 122.464ZM504.563 94.048L504.111 91.0823L501.563 91.4709V94.048H504.563ZM503.411 123.616L505.532 125.737L505.588 125.682L505.641 125.623L503.411 123.616ZM504.563 86.112H501.563V89.1899L504.64 89.111L504.563 86.112ZM524.275 83.552L524.966 86.4712L524.98 86.468L524.994 86.4646L524.275 83.552ZM540.659 76.256L538.867 73.8503L538.867 73.8503L540.659 76.256ZM504.563 45.792L504.349 42.7996L501.563 42.9987V45.792H504.563ZM500.595 121.768C500.255 121.768 499.981 121.677 499.658 121.386L495.644 125.846C497.027 127.091 498.717 127.768 500.595 127.768V121.768ZM499.881 121.609C499.59 121.286 499.499 121.012 499.499 120.672H493.499C493.499 122.55 494.176 124.24 495.421 125.623L499.881 121.609ZM499.499 120.672V43.232H493.499V120.672H499.499ZM499.499 43.232C499.499 42.5433 499.545 42.0239 499.612 41.6474C499.645 41.4621 499.681 41.3272 499.711 41.2341C499.742 41.1405 499.763 41.103 499.761 41.1049L494.517 38.1911C493.711 39.6409 493.499 41.4651 493.499 43.232H499.499ZM499.635 41.3121C499.582 41.3921 499.553 41.382 499.664 41.3217C499.788 41.2537 500.047 41.147 500.508 41.0606L499.402 35.1634C497.64 35.4938 495.786 36.2686 494.643 37.9839L499.635 41.3121ZM500.508 41.0606C501.579 40.8598 503.557 40.728 506.611 40.728V34.728C503.521 34.728 501.062 34.8522 499.402 35.1634L500.508 41.0606ZM506.611 40.728H510.323V34.728H506.611V40.728ZM510.323 40.728C524.497 40.728 534.969 43.0049 542.072 47.22L545.134 42.06C536.707 37.0591 524.992 34.728 510.323 34.728V40.728ZM542.072 47.22C549.003 51.3328 552.251 56.9207 552.251 64.224H558.251C558.251 54.6313 553.734 47.1632 545.134 42.06L542.072 47.22ZM552.251 64.224C552.251 69.0928 550.611 73.2751 547.255 76.9087C543.838 80.6091 538.534 83.8488 531.083 86.4836L533.083 92.1404C541.077 89.3138 547.358 85.6416 551.663 80.9793C556.03 76.2503 558.251 70.6192 558.251 64.224H552.251ZM530.469 91.8408C534.204 94.2248 538.411 97.8384 543.091 102.769L547.443 98.6387C542.566 93.5002 537.983 89.5192 533.697 86.7832L530.469 91.8408ZM543.127 102.807C547.74 107.501 551.791 113.292 555.256 120.222L560.622 117.538C556.919 110.132 552.522 103.806 547.407 98.6012L543.127 102.807ZM555.596 120.754C555.544 120.688 555.506 120.626 555.48 120.574C555.454 120.522 555.442 120.486 555.438 120.472C555.432 120.448 555.451 120.504 555.451 120.672H561.451C561.451 119.494 561.192 118.143 560.282 117.006L555.596 120.754ZM555.451 120.672C555.451 121.012 555.36 121.286 555.069 121.609L559.529 125.623C560.774 124.24 561.451 122.55 561.451 120.672H555.451ZM555.178 121.495C555.031 121.641 554.841 121.768 554.355 121.768V127.768C556.258 127.768 558.031 127.127 559.42 125.737L555.178 121.495ZM554.355 121.768C554.211 121.768 553.876 121.792 553.331 120.9L548.211 124.028C549.543 126.208 551.598 127.768 554.355 127.768V121.768ZM553.337 120.909C547.276 110.908 541.228 103.225 535.157 98.012C529.078 92.7916 522.789 89.896 516.339 89.896V95.896C520.897 95.896 525.85 97.9284 531.249 102.564C536.656 107.207 542.32 114.308 548.205 124.019L553.337 120.909ZM516.339 89.896C513.297 89.896 509.196 90.3066 504.111 91.0823L505.015 97.0137C509.999 96.2534 513.749 95.896 516.339 95.896V89.896ZM501.563 94.048V120.672H507.563V94.048H501.563ZM501.563 120.672C501.563 121.012 501.472 121.286 501.181 121.609L505.641 125.623C506.886 124.24 507.563 122.55 507.563 120.672H501.563ZM501.29 121.495C501.098 121.687 500.928 121.768 500.595 121.768V127.768C502.481 127.768 504.188 127.081 505.532 125.737L501.29 121.495ZM504.64 89.111C511.503 88.935 518.28 88.0549 524.966 86.4712L523.584 80.6328C517.3 82.1211 510.935 82.9476 504.486 83.113L504.64 89.111ZM524.994 86.4646C531.86 84.7704 537.71 82.1943 542.451 78.6616L538.867 73.8503C534.904 76.803 529.832 79.0909 523.556 80.6394L524.994 86.4646ZM542.451 78.6616C547.445 74.9408 550.187 70.0884 550.187 64.224H544.187C544.187 67.9169 542.577 71.0859 538.867 73.8503L542.451 78.6616ZM550.187 64.224C550.187 60.6257 549.213 57.3456 547.208 54.4975C545.225 51.6784 542.346 49.4426 538.772 47.7027L536.146 53.0973C539.057 54.5147 541.043 56.1616 542.302 57.9505C543.54 59.7103 544.187 61.7637 544.187 64.224H550.187ZM538.772 47.7027C531.696 44.2577 521.997 42.664 509.939 42.664V48.664C521.604 48.664 530.251 50.2277 536.146 53.0973L538.772 47.7027ZM509.939 42.664C507.534 42.664 505.655 42.7064 504.349 42.7996L504.777 48.7844C505.861 48.7069 507.566 48.664 509.939 48.664V42.664ZM501.563 45.792V86.112H507.563V45.792H501.563ZM568.013 122.848L565.892 124.969L565.947 125.025L566.006 125.078L568.013 122.848ZM568.013 117.344L570.006 119.586L570.013 119.58L570.02 119.574L568.013 117.344ZM583.245 116.192V119.192H586.245V116.192H583.245ZM583.245 46.048H586.245V43.048H583.245V46.048ZM568.013 44.896L565.892 47.0173L565.947 47.0731L566.006 47.1259L568.013 44.896ZM568.013 39.392L570.006 41.6342L570.013 41.6281L570.02 41.6219L568.013 39.392ZM606.285 39.392L604.164 41.5133L604.226 41.5757L604.292 41.6342L606.285 39.392ZM606.285 44.896L608.406 47.0173L608.406 47.0173L606.285 44.896ZM591.437 46.048V43.048H588.437V46.048H591.437ZM591.437 116.192H588.437V119.192H591.437V116.192ZM606.285 117.344L604.043 119.337L604.16 119.469L604.292 119.586L606.285 117.344ZM606.285 122.848L608.406 124.969L608.406 124.969L606.285 122.848ZM571.085 121C570.598 121 570.298 120.869 570.02 120.618L566.006 125.078C567.434 126.363 569.182 127 571.085 127V121ZM570.134 120.727C569.942 120.535 569.861 120.365 569.861 120.032H563.861C563.861 121.918 564.548 123.625 565.892 124.969L570.134 120.727ZM569.861 120.032C569.861 119.828 569.895 119.736 569.906 119.71C569.915 119.689 569.933 119.651 570.006 119.586L566.02 115.102C564.556 116.403 563.861 118.143 563.861 120.032H569.861ZM570.02 119.574C570.298 119.323 570.598 119.192 571.085 119.192V113.192C569.182 113.192 567.434 113.829 566.006 115.114L570.02 119.574ZM571.085 119.192H583.245V113.192H571.085V119.192ZM586.245 116.192V46.048H580.245V116.192H586.245ZM583.245 43.048H571.085V49.048H583.245V43.048ZM571.085 43.048C570.598 43.048 570.298 42.9167 570.02 42.6661L566.006 47.1259C567.434 48.4113 569.182 49.048 571.085 49.048V43.048ZM570.134 42.7747C569.942 42.5826 569.861 42.4127 569.861 42.08H563.861C563.861 43.9659 564.548 45.6734 565.892 47.0173L570.134 42.7747ZM569.861 42.08C569.861 41.8758 569.895 41.7842 569.906 41.7578C569.915 41.737 569.933 41.6988 570.006 41.6342L566.02 37.1498C564.556 38.4508 563.861 40.1905 563.861 42.08H569.861ZM570.02 41.6219C570.298 41.3713 570.598 41.24 571.085 41.24V35.24C569.182 35.24 567.434 35.8767 566.006 37.1621L570.02 41.6219ZM571.085 41.24H603.469V35.24H571.085V41.24ZM603.469 41.24C603.802 41.24 603.972 41.3213 604.164 41.5133L608.406 37.2707C607.062 35.9267 605.355 35.24 603.469 35.24V41.24ZM604.292 41.6342C604.365 41.6988 604.383 41.737 604.392 41.7578C604.403 41.7842 604.437 41.8758 604.437 42.08H610.437C610.437 40.1905 609.742 38.4508 608.278 37.1498L604.292 41.6342ZM604.437 42.08C604.437 42.4127 604.356 42.5826 604.164 42.7747L608.406 47.0173C609.75 45.6734 610.437 43.9659 610.437 42.08H604.437ZM604.164 42.7747C603.972 42.9667 603.802 43.048 603.469 43.048V49.048C605.355 49.048 607.062 48.3613 608.406 47.0173L604.164 42.7747ZM603.469 43.048H591.437V49.048H603.469V43.048ZM588.437 46.048V116.192H594.437V46.048H588.437ZM591.437 119.192H603.469V113.192H591.437V119.192ZM603.469 119.192C603.745 119.192 603.882 119.236 603.933 119.257C603.973 119.273 604.001 119.291 604.043 119.337L608.527 115.351C607.181 113.836 605.367 113.192 603.469 113.192V119.192ZM604.292 119.586C604.365 119.651 604.383 119.689 604.392 119.71C604.403 119.736 604.437 119.828 604.437 120.032H610.437C610.437 118.143 609.742 116.403 608.278 115.102L604.292 119.586ZM604.437 120.032C604.437 120.365 604.356 120.535 604.164 120.727L608.406 124.969C609.75 123.625 610.437 121.918 610.437 120.032H604.437ZM604.164 120.727C603.972 120.919 603.802 121 603.469 121V127C605.355 127 607.062 126.313 608.406 124.969L604.164 120.727ZM603.469 121H571.085V127H603.469V121ZM630.132 119.648L628.38 122.083L628.404 122.101L628.429 122.118L630.132 119.648ZM618.74 105.312L615.999 106.53L616.002 106.538L616.005 106.545L618.74 105.312ZM619.764 61.024L622.478 62.3014L622.478 62.3014L619.764 61.024ZM633.588 43.872L635.342 46.3059L635.354 46.2975L635.365 46.2889L633.588 43.872ZM669.172 42.72L667.42 45.1554L667.434 45.1656L667.449 45.1757L669.172 42.72ZM680.564 57.056L677.823 58.2744L677.823 58.2744L680.564 57.056ZM679.54 101.344L682.249 102.634L682.254 102.621L679.54 101.344ZM665.716 118.496L667.47 120.93L667.482 120.921L667.493 120.913L665.716 118.496ZM661.62 111.584L659.763 109.228L659.751 109.237L659.74 109.246L661.62 111.584ZM672.244 97.376L674.987 98.5908L674.987 98.5908L672.244 97.376ZM673.012 61.024L670.257 62.2115L670.257 62.2115L673.012 61.024ZM664.18 49.504L662.389 51.9107L662.402 51.9205L662.415 51.9302L664.18 49.504ZM637.556 50.656L639.385 53.0339L639.399 53.0229L639.413 53.0118L637.556 50.656ZM626.932 64.736L624.189 63.5212L624.182 63.5377L624.175 63.5542L626.932 64.736ZM626.292 101.6L623.537 102.787L623.549 102.816L623.563 102.845L626.292 101.6ZM635.124 112.864L633.37 115.298L633.37 115.298L635.124 112.864ZM646.9 121.768C641.256 121.768 636.265 120.233 631.835 117.178L628.429 122.118C633.898 125.889 640.086 127.768 646.9 127.768V121.768ZM631.884 117.213C627.493 114.054 624.013 109.711 621.475 104.079L616.005 106.545C618.928 113.03 623.043 118.244 628.38 122.083L631.884 117.213ZM621.481 104.094C618.942 98.3799 617.644 91.9333 617.644 84.704H611.644C611.644 92.664 613.077 99.9561 615.999 106.53L621.481 104.094ZM617.644 84.704C617.644 76.5832 619.265 69.1296 622.478 62.3014L617.05 59.7466C613.436 67.425 611.644 75.7581 611.644 84.704H617.644ZM622.478 62.3014C625.702 55.4522 630 50.1549 635.342 46.3059L631.834 41.4381C625.57 45.9517 620.653 52.0892 617.05 59.7466L622.478 62.3014ZM635.365 46.2889C640.69 42.3735 646.347 40.472 652.404 40.472V34.472C644.978 34.472 638.091 36.8371 631.811 41.455L635.365 46.2889ZM652.404 40.472C658.126 40.472 663.095 42.0443 667.42 45.1554L670.924 40.2846C665.521 36.3983 659.311 34.472 652.404 34.472V40.472ZM667.449 45.1757C671.811 48.237 675.283 52.5607 677.823 58.2744L683.305 55.8376C680.384 49.2633 676.261 44.0296 670.895 40.2643L667.449 45.1757ZM677.823 58.2744C680.362 63.9881 681.66 70.4347 681.66 77.664H687.66C687.66 69.704 686.227 62.4119 683.305 55.8376L677.823 58.2744ZM681.66 77.664C681.66 85.7848 680.039 93.2384 676.826 100.067L682.254 102.621C685.868 94.943 687.66 86.6099 687.66 77.664H681.66ZM676.831 100.054C673.609 106.822 669.303 112.135 663.939 116.079L667.493 120.913C673.734 116.324 678.645 110.202 682.249 102.634L676.831 100.054ZM663.962 116.062C658.637 119.899 652.972 121.768 646.9 121.768V127.768C654.31 127.768 661.189 125.455 667.47 120.93L663.962 116.062ZM647.412 119.832C653.279 119.832 658.666 117.808 663.5 113.922L659.74 109.246C655.87 112.358 651.785 113.832 647.412 113.832V119.832ZM663.477 113.94C668.355 110.094 672.175 104.941 674.987 98.5908L669.501 96.1612C667.022 101.758 663.76 106.076 659.763 109.228L663.477 113.94ZM674.987 98.5908C677.812 92.2129 679.212 85.3537 679.212 78.048H673.212C673.212 84.5663 671.967 90.5924 669.501 96.1612L674.987 98.5908ZM679.212 78.048C679.212 71.3149 678.089 65.2243 675.767 59.8365L670.257 62.2115C672.201 66.7223 673.212 71.9811 673.212 78.048H679.212ZM675.767 59.8365C673.455 54.4735 670.2 50.173 665.945 47.0778L662.415 51.9302C665.669 54.2964 668.302 57.6758 670.257 62.2115L675.767 59.8365ZM665.971 47.0973C661.78 43.9783 657.012 42.408 651.764 42.408V48.408C655.732 48.408 659.241 49.5684 662.389 51.9107L665.971 47.0973ZM651.764 42.408C645.973 42.408 640.597 44.4382 635.699 48.3002L639.413 53.0118C643.39 49.8765 647.485 48.408 651.764 48.408V42.408ZM635.727 48.2781C630.831 52.0442 627.003 57.1668 624.189 63.5212L629.675 65.9508C632.152 60.3585 635.406 56.0945 639.385 53.0339L635.727 48.2781ZM624.175 63.5542C621.439 69.9378 620.092 76.9158 620.092 84.448H626.092C626.092 77.6442 627.305 71.4809 629.689 65.9178L624.175 63.5542ZM620.092 84.448C620.092 91.2604 621.213 97.395 623.537 102.787L629.047 100.413C627.105 95.9063 626.092 90.6063 626.092 84.448H620.092ZM623.563 102.845C625.958 108.097 629.206 112.296 633.37 115.298L636.878 110.43C633.703 108.141 631.063 104.831 629.021 100.355L623.563 102.845ZM633.37 115.298C637.55 118.311 642.259 119.832 647.412 119.832V113.832C643.519 113.832 640.037 112.708 636.878 110.43L633.37 115.298ZM706.238 119.904L704.641 122.443L704.664 122.458L704.689 122.473L706.238 119.904ZM695.102 106.976L697.884 105.854L697.796 105.635L697.674 105.433L695.102 106.976ZM695.614 101.472L697.621 103.702L697.68 103.649L697.735 103.593L695.614 101.472ZM702.91 103.52L700.043 104.402L700.064 104.472L700.089 104.54L702.91 103.52ZM711.358 113.376L709.792 115.935L709.822 115.953L709.853 115.971L711.358 113.376ZM736.83 114.912L735.631 112.162L735.618 112.168L735.605 112.174L736.83 114.912ZM744.51 109.024L742.12 107.211L742.1 107.237L742.08 107.264L744.51 109.024ZM742.462 90.464L744.462 88.2283L744.462 88.2283L742.462 90.464ZM725.95 82.912L726.745 80.0192L726.739 80.0177L725.95 82.912ZM702.654 47.968L700.239 46.1884L700.223 46.2093L700.208 46.2304L702.654 47.968ZM712.894 40.288L711.744 37.5172L711.734 37.5211L711.725 37.5251L712.894 40.288ZM748.35 42.336L746.645 44.8042L746.66 44.8148L746.675 44.8252L748.35 42.336ZM754.238 58.08L756.359 60.2013L756.415 60.1455L756.468 60.0869L754.238 58.08ZM748.734 58.208L746.613 60.3293L746.675 60.3917L746.741 60.4502L748.734 58.208ZM747.582 55.776L750.57 55.5044L750.564 55.4444L750.556 55.3846L747.582 55.776ZM741.694 47.84L740.151 50.4125L740.164 50.4208L740.178 50.429L741.694 47.84ZM712.766 48.48L711.089 45.9928L711.075 46.002L711.061 46.0113L712.766 48.48ZM712.382 68.064L710.553 70.4419L710.567 70.453L710.582 70.464L712.382 68.064ZM727.998 74.848L727.188 77.7365L727.195 77.7386L727.998 74.848ZM748.606 84.96L746.569 87.1628L746.591 87.1827L746.613 87.2022L748.606 84.96ZM751.422 112.736L753.848 114.501L753.858 114.488L753.867 114.475L751.422 112.736ZM740.414 121.568L739.154 118.846L739.154 118.846L740.414 121.568ZM725.694 121.768C718.531 121.768 712.606 120.242 707.787 117.335L704.689 122.473C710.622 126.052 717.668 127.768 725.694 127.768V121.768ZM707.835 117.365C703.025 114.339 699.759 110.503 697.884 105.854L692.32 108.098C694.712 114.03 698.869 118.813 704.641 122.443L707.835 117.365ZM697.674 105.433C697.395 104.967 697.334 104.641 697.334 104.416H691.334C691.334 105.898 691.785 107.278 692.53 108.519L697.674 105.433ZM697.334 104.416C697.334 104.033 697.428 103.875 697.621 103.702L693.607 99.2421C692.093 100.605 691.334 102.41 691.334 104.416H697.334ZM697.735 103.593C698.032 103.296 698.296 103.192 698.686 103.192V97.192C696.687 97.192 694.902 97.9412 693.493 99.3507L697.735 103.593ZM698.686 103.192C699.212 103.192 699.406 103.318 699.485 103.38C699.587 103.461 699.828 103.705 700.043 104.402L705.777 102.638C705.309 101.117 704.505 99.6968 703.199 98.6675C701.87 97.6206 700.293 97.192 698.686 97.192V103.192ZM700.089 104.54C701.805 109.285 705.121 113.075 709.792 115.935L712.924 110.817C709.233 108.557 706.916 105.776 705.731 102.5L700.089 104.54ZM709.853 115.971C714.61 118.73 719.914 120.088 725.694 120.088V114.088C720.892 114.088 716.639 112.971 712.863 110.781L709.853 115.971ZM725.694 120.088C730.224 120.088 734.365 119.301 738.055 117.65L735.605 112.174C732.81 113.424 729.527 114.088 725.694 114.088V120.088ZM738.029 117.662C741.755 116.038 744.779 113.768 746.94 110.784L742.08 107.264C740.657 109.229 738.561 110.885 735.631 112.162L738.029 117.662ZM746.9 110.837C749.168 107.847 750.326 104.439 750.326 100.704H744.326C744.326 103.113 743.606 105.252 742.12 107.211L746.9 110.837ZM750.326 100.704C750.326 95.827 748.264 91.6298 744.462 88.2283L740.462 92.6997C743.145 95.1009 744.326 97.7303 744.326 100.704H750.326ZM744.462 88.2283C740.692 84.8545 734.639 82.1879 726.745 80.0192L725.155 85.8048C732.792 87.9028 737.747 90.2709 740.462 92.6997L744.462 88.2283ZM726.739 80.0177C718.047 77.6471 711.855 74.6081 707.88 71.071C704.001 67.6182 702.198 63.6737 702.198 59.104H696.198C696.198 65.5423 698.854 71.0698 703.892 75.553C708.834 79.9518 716.018 83.3129 725.161 85.8063L726.739 80.0177ZM702.198 59.104C702.198 55.5115 703.175 52.4138 705.1 49.7056L700.208 46.2304C697.525 50.0076 696.198 54.3338 696.198 59.104H702.198ZM705.069 49.7476C707.081 47.0168 710.024 44.7597 714.063 43.0509L711.725 37.5251C706.889 39.571 703.005 42.4338 700.239 46.1884L705.069 49.7476ZM714.044 43.0588C718.132 41.3621 722.975 40.472 728.638 40.472V34.472C722.354 34.472 716.702 35.4592 711.744 37.5172L714.044 43.0588ZM728.638 40.472C736.754 40.472 742.64 42.0376 746.645 44.8042L750.055 39.8678C744.673 36.149 737.418 34.472 728.638 34.472V40.472ZM746.675 44.8252C750.592 47.4598 752.39 50.8192 752.39 55.136H758.39C758.39 48.7008 755.495 43.5269 750.025 39.8468L746.675 44.8252ZM752.39 55.136C752.39 55.4763 752.299 55.7495 752.008 56.0731L756.468 60.0869C757.713 58.7038 758.39 57.0144 758.39 55.136H752.39ZM752.117 55.9587C751.925 56.1507 751.755 56.232 751.422 56.232V62.232C753.308 62.232 755.015 61.5453 756.359 60.2013L752.117 55.9587ZM751.422 56.232C751.136 56.232 750.948 56.1622 750.727 55.9658L746.741 60.4502C748.056 61.6192 749.66 62.232 751.422 62.232V56.232ZM750.855 56.0867C750.656 55.8871 750.59 55.7258 750.57 55.5044L744.594 56.0476C744.745 57.7035 745.447 59.1635 746.613 60.3293L750.855 56.0867ZM750.556 55.3846C749.98 51.005 747.296 47.6431 743.21 45.251L740.178 50.429C743.089 52.1329 744.331 54.0617 744.608 56.1674L750.556 55.3846ZM743.237 45.2675C739.209 42.8506 734.14 41.768 728.254 41.768V47.768C733.461 47.768 737.352 48.7334 740.151 50.4125L743.237 45.2675ZM728.254 41.768C721.283 41.768 715.445 43.0547 711.089 45.9928L714.443 50.9672C717.426 48.9559 721.913 47.768 728.254 47.768V41.768ZM711.061 46.0113C706.667 49.0455 704.39 53.3813 704.39 58.72H710.39C710.39 55.3547 711.697 52.8638 714.471 50.9487L711.061 46.0113ZM704.39 58.72C704.39 63.4634 706.608 67.407 710.553 70.4419L714.211 65.6861C711.5 63.601 710.39 61.3153 710.39 58.72H704.39ZM710.582 70.464C714.43 73.35 720.048 75.734 727.188 77.7365L728.808 71.9595C721.953 70.0366 717.161 67.898 714.182 65.664L710.582 70.464ZM727.195 77.7386C736.181 80.2347 742.539 83.4362 746.569 87.1628L750.643 82.7572C745.628 78.1212 738.247 74.5813 728.801 71.9574L727.195 77.7386ZM746.613 87.2022C750.604 90.7498 752.518 94.9785 752.518 100.064H758.518C758.518 93.2029 755.824 87.3622 750.599 82.7178L746.613 87.2022ZM752.518 100.064C752.518 104.034 751.355 107.653 748.977 110.997L753.867 114.475C756.95 110.139 758.518 105.31 758.518 100.064H752.518ZM748.996 110.971C746.593 114.275 743.342 116.906 739.154 118.846L741.674 124.29C746.702 121.963 750.789 118.707 753.848 114.501L748.996 110.971ZM739.154 118.846C734.951 120.791 730.475 121.768 725.694 121.768V127.768C731.323 127.768 736.661 126.611 741.674 124.29L739.154 118.846ZM261.651 270.616L259.421 272.623L259.527 272.74L259.644 272.846L261.651 270.616ZM261.011 186.648L258.389 185.191L258.357 185.248L258.328 185.306L261.011 186.648ZM306.835 191.256L305.35 193.862L305.35 193.862L306.835 191.256ZM310.547 228.76L312.46 231.071L312.471 231.062L312.482 231.053L310.547 228.76ZM290.835 238.488L291.578 241.395L291.578 241.395L290.835 238.488ZM268.691 241.56L268.655 238.56L265.691 238.596V241.56H268.691ZM267.539 270.616L269.66 272.737L269.716 272.682L269.769 272.623L267.539 270.616ZM268.691 233.496H265.691V236.546L268.741 236.496L268.691 233.496ZM285.971 231.448L285.383 228.506L285.383 228.506L285.971 231.448ZM303.123 224.536L304.777 227.039L304.792 227.029L304.806 227.019L303.123 224.536ZM268.691 192.664L268.319 189.687L265.691 190.016V192.664H268.691ZM264.595 268.768C264.255 268.768 263.981 268.677 263.658 268.386L259.644 272.846C261.027 274.091 262.717 274.768 264.595 274.768V268.768ZM263.881 268.609C263.59 268.286 263.499 268.012 263.499 267.672H257.499C257.499 269.55 258.176 271.24 259.421 272.623L263.881 268.609ZM263.499 267.672V190.104H257.499V267.672H263.499ZM263.499 190.104C263.499 189.388 263.537 188.85 263.595 188.464C263.655 188.055 263.719 187.939 263.694 187.99L258.328 185.306C257.65 186.661 257.499 188.427 257.499 190.104H263.499ZM263.633 188.105C263.532 188.287 263.441 188.31 263.561 188.239C263.694 188.161 263.984 188.029 264.514 187.904L263.14 182.064C261.412 182.47 259.435 183.307 258.389 185.191L263.633 188.105ZM264.514 187.904C265.599 187.649 267.686 187.472 270.995 187.472V181.472C267.648 181.472 264.956 181.636 263.14 182.064L264.514 187.904ZM270.995 187.472C286.769 187.472 298.089 189.725 305.35 193.862L308.32 188.65C299.709 183.742 287.136 181.472 270.995 181.472V187.472ZM305.35 193.862C312.43 197.897 315.739 203.474 315.739 210.84H321.739C321.739 201.139 317.112 193.66 308.32 188.65L305.35 193.862ZM315.739 210.84C315.739 217.322 313.377 222.447 308.612 226.467L312.482 231.053C318.639 225.857 321.739 219.035 321.739 210.84H315.739ZM308.634 226.449C303.552 230.658 297.394 233.715 290.092 235.581L291.578 241.395C299.636 239.335 306.619 235.908 312.46 231.071L308.634 226.449ZM290.092 235.581C282.616 237.492 275.473 238.478 268.655 238.56L268.727 244.56C276.075 244.471 283.694 243.409 291.578 241.395L290.092 235.581ZM265.691 241.56V267.672H271.691V241.56H265.691ZM265.691 267.672C265.691 268.012 265.6 268.286 265.309 268.609L269.769 272.623C271.014 271.24 271.691 269.55 271.691 267.672H265.691ZM265.418 268.495C265.271 268.641 265.081 268.768 264.595 268.768V274.768C266.498 274.768 268.271 274.127 269.66 272.737L265.418 268.495ZM268.741 236.496C274.083 236.407 280.028 235.696 286.559 234.39L285.383 228.506C279.114 229.76 273.539 230.415 268.641 230.496L268.741 236.496ZM286.559 234.39C293.308 233.04 299.394 230.597 304.777 227.039L301.469 222.033C296.783 225.131 291.434 227.296 285.383 228.506L286.559 234.39ZM304.806 227.019C310.602 223.09 313.675 217.625 313.675 210.84H307.675C307.675 215.489 305.713 219.155 301.44 222.053L304.806 227.019ZM313.675 210.84C313.675 207.308 312.69 204.085 310.681 201.284C308.696 198.515 305.822 196.309 302.26 194.575L299.634 199.969C302.557 201.393 304.547 203.026 305.805 204.78C307.039 206.501 307.675 208.484 307.675 210.84H313.675ZM302.26 194.575C295.18 191.128 285.392 189.536 273.171 189.536V195.536C285.014 195.536 293.744 197.102 299.634 199.969L302.26 194.575ZM273.171 189.536C270.914 189.536 269.223 189.574 268.319 189.687L269.063 195.641C269.525 195.583 270.82 195.536 273.171 195.536V189.536ZM265.691 192.664V233.496H271.691V192.664H265.691ZM333.404 269.72L331.283 271.841L331.283 271.841L333.404 269.72ZM333.276 186.52L331.155 184.399L331.155 184.399L333.276 186.52ZM340.316 193.432V190.432H337.316V193.432H340.316ZM340.316 222.232H337.316V225.232H340.316V222.232ZM387.164 223.384L384.922 225.377L385.039 225.509L385.171 225.626L387.164 223.384ZM387.164 229.272L389.285 231.393L389.341 231.338L389.394 231.279L387.164 229.272ZM340.316 230.424V227.424H337.316V230.424H340.316ZM340.316 262.808H337.316V265.808H340.316V262.808ZM393.052 269.848L395.173 271.969L395.173 271.969L393.052 269.848ZM336.348 268C336.108 268 335.871 267.944 335.525 267.599L331.283 271.841C332.644 273.203 334.369 274 336.348 274V268ZM335.525 267.599C335.18 267.253 335.124 267.016 335.124 266.776H329.124C329.124 268.755 329.921 270.48 331.283 271.841L335.525 267.599ZM335.124 266.776V189.336H329.124V266.776H335.124ZM335.124 189.336C335.124 189.003 335.205 188.833 335.397 188.641L331.155 184.399C329.811 185.743 329.124 187.45 329.124 189.336H335.124ZM335.397 188.641C335.694 188.344 335.958 188.24 336.348 188.24V182.24C334.349 182.24 332.564 182.989 331.155 184.399L335.397 188.641ZM336.348 188.24H390.492V182.24H336.348V188.24ZM390.492 188.24C390.978 188.24 391.168 188.367 391.315 188.513L395.557 184.271C394.168 182.881 392.395 182.24 390.492 182.24V188.24ZM391.315 188.513C391.461 188.66 391.588 188.85 391.588 189.336H397.588C397.588 187.433 396.947 185.66 395.557 184.271L391.315 188.513ZM391.588 189.336C391.588 189.576 391.532 189.813 391.187 190.159L395.429 194.401C396.791 193.04 397.588 191.315 397.588 189.336H391.588ZM391.187 190.159C390.995 190.351 390.825 190.432 390.492 190.432V196.432C392.378 196.432 394.085 195.745 395.429 194.401L391.187 190.159ZM390.492 190.432H340.316V196.432H390.492V190.432ZM337.316 193.432V222.232H343.316V193.432H337.316ZM340.316 225.232H384.348V219.232H340.316V225.232ZM384.348 225.232C384.624 225.232 384.761 225.276 384.812 225.297C384.852 225.313 384.88 225.331 384.922 225.377L389.406 221.391C388.06 219.876 386.246 219.232 384.348 219.232V225.232ZM385.171 225.626C385.217 225.668 385.235 225.696 385.251 225.736C385.272 225.787 385.316 225.924 385.316 226.2H391.316C391.316 224.302 390.672 222.488 389.157 221.142L385.171 225.626ZM385.316 226.2C385.316 226.687 385.185 226.987 384.934 227.265L389.394 231.279C390.679 229.851 391.316 228.103 391.316 226.2H385.316ZM385.043 227.151C384.851 227.343 384.681 227.424 384.348 227.424V233.424C386.234 233.424 387.941 232.737 389.285 231.393L385.043 227.151ZM384.348 227.424H340.316V233.424H384.348V227.424ZM337.316 230.424V262.808H343.316V230.424H337.316ZM340.316 265.808H390.236V259.808H340.316V265.808ZM390.236 265.808C390.722 265.808 390.912 265.935 391.059 266.081L395.301 261.839C393.912 260.449 392.139 259.808 390.236 259.808V265.808ZM391.059 266.081C391.251 266.273 391.332 266.443 391.332 266.776H397.332C397.332 264.89 396.645 263.183 395.301 261.839L391.059 266.081ZM391.332 266.776C391.332 267.166 391.228 267.43 390.931 267.727L395.173 271.969C396.583 270.56 397.332 268.775 397.332 266.776H391.332ZM390.931 267.727C390.739 267.919 390.569 268 390.236 268V274C392.122 274 393.829 273.313 395.173 271.969L390.931 267.727ZM390.236 268H336.348V274H390.236V268ZM429.217 270.616L426.987 272.623L427.04 272.682L427.096 272.737L429.217 270.616ZM428.065 193.304H431.065V190.304H428.065V193.304ZM400.929 192.152L398.808 194.273L398.863 194.329L398.922 194.382L400.929 192.152ZM400.929 186.52L398.808 184.399L398.808 184.399L400.929 186.52ZM463.137 186.392L461.016 188.513L461.016 188.513L463.137 186.392ZM463.137 192.152L461.016 190.031L461.016 190.031L463.137 192.152ZM436.129 193.304V190.304H433.129V193.304H436.129ZM434.849 270.616L436.97 272.737L436.97 272.737L434.849 270.616ZM432.033 268.768C431.7 268.768 431.53 268.687 431.338 268.495L427.096 272.737C428.44 274.081 430.147 274.768 432.033 274.768V268.768ZM431.447 268.609C431.156 268.286 431.065 268.012 431.065 267.672H425.065C425.065 269.55 425.742 271.24 426.987 272.623L431.447 268.609ZM431.065 267.672V193.304H425.065V267.672H431.065ZM428.065 190.304H403.873V196.304H428.065V190.304ZM403.873 190.304C403.533 190.304 403.259 190.213 402.936 189.922L398.922 194.382C400.305 195.627 401.995 196.304 403.873 196.304V190.304ZM403.05 190.031C402.858 189.839 402.777 189.669 402.777 189.336H396.777C396.777 191.222 397.464 192.929 398.808 194.273L403.05 190.031ZM402.777 189.336C402.777 189.003 402.858 188.833 403.05 188.641L398.808 184.399C397.464 185.743 396.777 187.45 396.777 189.336H402.777ZM403.05 188.641C403.396 188.296 403.633 188.24 403.873 188.24V182.24C401.894 182.24 400.169 183.037 398.808 184.399L403.05 188.641ZM403.873 188.24H460.321V182.24H403.873V188.24ZM460.321 188.24C460.654 188.24 460.824 188.321 461.016 188.513L465.258 184.271C463.914 182.927 462.207 182.24 460.321 182.24V188.24ZM461.016 188.513C461.162 188.66 461.289 188.85 461.289 189.336H467.289C467.289 187.433 466.648 185.66 465.258 184.271L461.016 188.513ZM461.289 189.336C461.289 189.669 461.208 189.839 461.016 190.031L465.258 194.273C466.602 192.929 467.289 191.222 467.289 189.336H461.289ZM461.016 190.031C460.824 190.223 460.654 190.304 460.321 190.304V196.304C462.207 196.304 463.914 195.617 465.258 194.273L461.016 190.031ZM460.321 190.304H436.129V196.304H460.321V190.304ZM433.129 193.304V267.672H439.129V193.304H433.129ZM433.129 267.672C433.129 267.912 433.073 268.149 432.728 268.495L436.97 272.737C438.332 271.376 439.129 269.651 439.129 267.672H433.129ZM432.728 268.495C432.536 268.687 432.366 268.768 432.033 268.768V274.768C433.919 274.768 435.626 274.081 436.97 272.737L432.728 268.495ZM480.988 266.904L479.391 269.443L479.414 269.458L479.439 269.473L480.988 266.904ZM469.852 253.976L472.634 252.854L472.546 252.635L472.424 252.433L469.852 253.976ZM470.364 248.472L472.371 250.702L472.43 250.649L472.485 250.593L470.364 248.472ZM477.66 250.52L474.793 251.402L474.814 251.472L474.839 251.54L477.66 250.52ZM486.108 260.376L484.542 262.935L484.572 262.953L484.603 262.971L486.108 260.376ZM511.58 261.912L510.381 259.162L510.368 259.168L510.355 259.174L511.58 261.912ZM519.26 256.024L516.87 254.211L516.85 254.237L516.83 254.264L519.26 256.024ZM517.212 237.464L519.212 235.228L519.212 235.228L517.212 237.464ZM500.7 229.912L501.495 227.019L501.489 227.018L500.7 229.912ZM477.404 194.968L474.989 193.188L474.973 193.209L474.958 193.23L477.404 194.968ZM487.644 187.288L486.494 184.517L486.484 184.521L486.475 184.525L487.644 187.288ZM523.1 189.336L521.395 191.804L521.41 191.815L521.425 191.825L523.1 189.336ZM528.988 205.08L531.109 207.201L531.165 207.146L531.218 207.087L528.988 205.08ZM523.484 205.208L521.363 207.329L521.425 207.392L521.491 207.45L523.484 205.208ZM522.332 202.776L525.32 202.504L525.314 202.444L525.306 202.385L522.332 202.776ZM516.444 194.84L514.901 197.412L514.914 197.421L514.928 197.429L516.444 194.84ZM487.516 195.48L485.839 192.993L485.825 193.002L485.811 193.011L487.516 195.48ZM487.132 215.064L485.303 217.442L485.317 217.453L485.332 217.464L487.132 215.064ZM502.748 221.848L501.938 224.737L501.945 224.739L502.748 221.848ZM523.356 231.96L521.319 234.163L521.341 234.183L521.363 234.202L523.356 231.96ZM526.172 259.736L528.598 261.501L528.608 261.488L528.617 261.475L526.172 259.736ZM515.164 268.568L513.904 265.846L513.904 265.846L515.164 268.568ZM500.444 268.768C493.281 268.768 487.356 267.242 482.537 264.335L479.439 269.473C485.372 273.052 492.418 274.768 500.444 274.768V268.768ZM482.585 264.365C477.775 261.339 474.509 257.503 472.634 252.854L467.07 255.098C469.462 261.03 473.619 265.813 479.391 269.443L482.585 264.365ZM472.424 252.433C472.145 251.967 472.084 251.641 472.084 251.416H466.084C466.084 252.898 466.535 254.278 467.28 255.519L472.424 252.433ZM472.084 251.416C472.084 251.033 472.178 250.875 472.371 250.702L468.357 246.242C466.843 247.605 466.084 249.41 466.084 251.416H472.084ZM472.485 250.593C472.782 250.296 473.046 250.192 473.436 250.192V244.192C471.437 244.192 469.652 244.941 468.243 246.351L472.485 250.593ZM473.436 250.192C473.962 250.192 474.156 250.318 474.235 250.38C474.337 250.461 474.578 250.705 474.793 251.402L480.527 249.638C480.059 248.117 479.255 246.697 477.949 245.668C476.62 244.621 475.043 244.192 473.436 244.192V250.192ZM474.839 251.54C476.555 256.285 479.871 260.075 484.542 262.935L487.674 257.817C483.983 255.557 481.666 252.776 480.481 249.5L474.839 251.54ZM484.603 262.971C489.36 265.73 494.664 267.088 500.444 267.088V261.088C495.642 261.088 491.389 259.971 487.613 257.781L484.603 262.971ZM500.444 267.088C504.974 267.088 509.115 266.301 512.805 264.65L510.355 259.174C507.56 260.424 504.277 261.088 500.444 261.088V267.088ZM512.779 264.662C516.505 263.038 519.529 260.768 521.69 257.784L516.83 254.264C515.407 256.229 513.311 257.885 510.381 259.162L512.779 264.662ZM521.65 257.837C523.918 254.847 525.076 251.439 525.076 247.704H519.076C519.076 250.113 518.356 252.252 516.87 254.211L521.65 257.837ZM525.076 247.704C525.076 242.827 523.014 238.63 519.212 235.228L515.212 239.7C517.895 242.101 519.076 244.73 519.076 247.704H525.076ZM519.212 235.228C515.442 231.854 509.389 229.188 501.495 227.019L499.905 232.805C507.542 234.903 512.497 237.271 515.212 239.7L519.212 235.228ZM501.489 227.018C492.797 224.647 486.605 221.608 482.63 218.071C478.751 214.618 476.948 210.674 476.948 206.104H470.948C470.948 212.542 473.604 218.07 478.642 222.553C483.584 226.952 490.768 230.313 499.911 232.806L501.489 227.018ZM476.948 206.104C476.948 202.512 477.925 199.414 479.85 196.706L474.958 193.23C472.275 197.008 470.948 201.334 470.948 206.104H476.948ZM479.819 196.748C481.831 194.017 484.774 191.76 488.813 190.051L486.475 184.525C481.639 186.571 477.755 189.434 474.989 193.188L479.819 196.748ZM488.794 190.059C492.882 188.362 497.725 187.472 503.388 187.472V181.472C497.104 181.472 491.452 182.459 486.494 184.517L488.794 190.059ZM503.388 187.472C511.504 187.472 517.39 189.038 521.395 191.804L524.805 186.868C519.423 183.149 512.168 181.472 503.388 181.472V187.472ZM521.425 191.825C525.342 194.46 527.14 197.819 527.14 202.136H533.14C533.14 195.701 530.245 190.527 524.775 186.847L521.425 191.825ZM527.14 202.136C527.14 202.476 527.049 202.75 526.758 203.073L531.218 207.087C532.463 205.704 533.14 204.014 533.14 202.136H527.14ZM526.867 202.959C526.675 203.151 526.505 203.232 526.172 203.232V209.232C528.058 209.232 529.765 208.545 531.109 207.201L526.867 202.959ZM526.172 203.232C525.886 203.232 525.698 203.162 525.477 202.966L521.491 207.45C522.806 208.619 524.41 209.232 526.172 209.232V203.232ZM525.605 203.087C525.406 202.887 525.34 202.726 525.32 202.504L519.344 203.048C519.495 204.703 520.197 206.164 521.363 207.329L525.605 203.087ZM525.306 202.385C524.73 198.005 522.046 194.643 517.96 192.251L514.928 197.429C517.839 199.133 519.081 201.062 519.358 203.167L525.306 202.385ZM517.987 192.268C513.959 189.851 508.89 188.768 503.004 188.768V194.768C508.211 194.768 512.102 195.733 514.901 197.412L517.987 192.268ZM503.004 188.768C496.033 188.768 490.195 190.055 485.839 192.993L489.193 197.967C492.176 195.956 496.663 194.768 503.004 194.768V188.768ZM485.811 193.011C481.417 196.046 479.14 200.381 479.14 205.72H485.14C485.14 202.355 486.447 199.864 489.221 197.949L485.811 193.011ZM479.14 205.72C479.14 210.463 481.358 214.407 485.303 217.442L488.961 212.686C486.25 210.601 485.14 208.315 485.14 205.72H479.14ZM485.332 217.464C489.18 220.35 494.798 222.734 501.938 224.737L503.558 218.959C496.703 217.037 491.911 214.898 488.932 212.664L485.332 217.464ZM501.945 224.739C510.931 227.235 517.289 230.436 521.319 234.163L525.393 229.757C520.378 225.121 512.997 221.581 503.551 218.957L501.945 224.739ZM521.363 234.202C525.354 237.75 527.268 241.978 527.268 247.064H533.268C533.268 240.203 530.574 234.362 525.349 229.718L521.363 234.202ZM527.268 247.064C527.268 251.034 526.105 254.653 523.727 257.997L528.617 261.475C531.7 257.139 533.268 252.31 533.268 247.064H527.268ZM523.746 257.971C521.343 261.275 518.092 263.906 513.904 265.846L516.424 271.29C521.452 268.963 525.539 265.707 528.598 261.501L523.746 257.971ZM513.904 265.846C509.701 267.791 505.225 268.768 500.444 268.768V274.768C506.073 274.768 511.411 273.611 516.424 271.29L513.904 265.846Z" fill="#7C4927"/>
<path d="M627.063 222.599C614.879 214.799 583.94 230.299 575.232 247.025C571.175 254.471 572.931 261.609 579.845 266.036C587.336 270.832 595.115 268.589 601.117 272.432C607.181 276.313 609.334 284.915 616.748 289.661C623.518 293.995 630.107 292.205 634.025 284.68C642.599 267.882 639.251 230.402 627.063 222.599ZM605.883 205.414C608.181 196.923 605.777 188.909 600.52 187.558C595.264 186.207 589.147 191.994 586.851 200.481C584.544 208.989 586.948 217.003 592.205 218.354C597.461 219.705 603.576 213.893 605.883 205.414ZM621.222 209.249C626.873 210.529 633.857 203.209 637.009 192.488C640.162 181.768 637.861 172.574 632.291 171.089C626.64 169.808 619.656 177.128 616.504 187.849C613.455 198.377 615.542 207.972 621.222 209.249ZM667.711 230.58C663.926 226.402 656.567 227.906 651.085 234.358C645.602 240.813 644.131 249.581 647.815 253.953C651.599 258.131 658.939 256.615 664.441 250.175C669.922 243.708 671.253 234.862 667.711 230.58ZM640.41 221.533C644.118 226.245 652.787 223.558 659.482 215.364C666.178 207.171 668.505 196.61 664.678 191.823C660.97 187.111 652.301 189.798 645.606 197.992C638.906 206.182 636.577 216.748 640.41 221.533Z" fill="#7C4927"/>
</svg>
